<?xml version="1.0" encoding="UTF-8"?>
<svg version="1.1" xmlns="http://www.w3.org/2000/svg" width="432" height="432">
<path d="M0 0 C142.56 0 285.12 0 432 0 C432 142.56 432 285.12 432 432 C289.44 432 146.88 432 0 432 C0 289.44 0 146.88 0 0 Z " fill="#FBFBFB" transform="translate(0,0)"/>
<path d="M0 0 C142.56 0 285.12 0 432 0 C432 142.56 432 285.12 432 432 C289.44 432 146.88 432 0 432 C0 289.44 0 146.88 0 0 Z M195 29 C195 29.66 195 30.32 195 31 C194.34660645 30.97897217 193.69321289 30.95794434 193.02001953 30.9362793 C185.7857121 30.80647866 178.9930817 31.57835897 171.875 32.8125 C170.7811499 32.99627197 169.6872998 33.18004395 168.56030273 33.36938477 C166.37369779 33.73818453 164.18772006 34.11072581 162.00244141 34.48730469 C159.41420637 34.92927034 156.82426639 35.35012748 154.23046875 35.7578125 C146.42339914 37.01152866 138.8954054 38.74578264 131.30224609 40.95068359 C124.64576614 42.87145182 117.93154443 44.48007063 111.1875 46.0625 C96.60855162 49.42709985 96.60855162 49.42709985 82.5625 54.5 C77.95504956 56.43997913 73.22985065 57.65727717 68.40234375 58.9375 C65.03535889 59.98895796 62.12979538 61.3902813 59 63 C58.93151907 94.80568702 58.87844872 126.611353 58.84680401 158.41709655 C58.84305202 162.17454886 58.83916904 165.93200103 58.83520508 169.68945312 C58.83441815 170.43747433 58.83363122 171.18549553 58.83282044 171.95618404 C58.81977693 184.05802194 58.79612891 196.15981696 58.76854161 208.26162945 C58.74045803 220.68503139 58.7238175 233.10841092 58.71773452 245.5318433 C58.71362419 253.19387871 58.70065578 260.8557929 58.6762506 268.51779099 C58.65847442 274.399259 58.65664183 280.28066525 58.66067696 286.16216087 C58.65985278 288.57035378 58.65390081 290.97855134 58.64238358 293.38671684 C58.62740428 296.68081975 58.63106655 299.97440876 58.63923645 303.26852417 C58.63049793 304.21602378 58.6217594 305.16352339 58.61275607 306.1397351 C58.70037749 319.25758361 63.64132871 329.73421266 72.6875 339.125 C76.96324089 343.22740005 81.48959888 346.74054514 86.34375 350.12890625 C88.82924741 351.87971987 91.19451474 353.71977242 93.5625 355.625 C100.68032032 361.1763986 108.46789822 365.31734359 116.5 369.375 C117.56069702 369.91241821 117.56069702 369.91241821 118.64282227 370.46069336 C122.15093895 372.34755943 122.15093895 372.34755943 126 373 C126 373.66 126 374.32 126 375 C126.55945313 375.20753906 127.11890625 375.41507812 127.6953125 375.62890625 C132.8084479 377.59359975 137.68847215 379.81068686 142.5625 382.3125 C151.71823087 387.00105868 161.24014015 390.8695892 170.87890625 394.44921875 C176.52408145 396.54958849 182.09119992 398.84767739 187.66601562 401.12695312 C192.39969697 403.03995346 197.08176079 404.61083388 202 406 C204.9767356 407.26751322 207.9070712 408.61082992 210.83984375 409.9765625 C217.62859643 412.17514495 222.76680511 411.09327795 229.25 408.5 C229.92691895 408.23372803 230.60383789 407.96745605 231.30126953 407.69311523 C233.53973015 406.80871326 235.76973002 405.90483892 238 405 C239.61676665 404.35441381 241.23396498 403.70990777 242.8515625 403.06640625 C246.22842229 401.72127667 249.60137355 400.36685176 252.97265625 399.0078125 C256.98209916 397.39724098 261.00985955 395.84132056 265.04736328 394.30273438 C272.58362893 391.4240401 279.91022594 388.28386954 287.18359375 384.796875 C289.81925876 383.53899069 292.47454599 382.35047222 295.16015625 381.203125 C312.6025968 373.73785435 329.33467702 364.71944137 345 354 C345.9590625 353.34644531 346.918125 352.69289063 347.90625 352.01953125 C360.25215335 343.33231555 373.96483613 332.66064943 377 317 C377.27378362 313.50295814 377.26161274 310.02168275 377.24050903 306.51539612 C377.24221788 305.47219284 377.24392673 304.42898957 377.24568737 303.35417408 C377.24897629 299.8656844 377.23798825 296.37738792 377.22705078 292.88891602 C377.22648654 290.38545232 377.22680348 287.88198829 377.22793579 285.37852478 C377.22839093 279.99236641 377.22272554 274.60626795 377.21146011 269.2201252 C377.195183 261.43274561 377.18999485 253.64538943 377.18748413 245.85799467 C377.1831105 233.22245515 377.16981039 220.5869415 377.15087891 207.95141602 C377.13251152 195.67960743 377.11835922 183.40780589 377.10986328 171.13598633 C377.10933783 170.37912852 377.10881239 169.6222707 377.10827102 168.84247781 C377.10566088 165.04541819 377.10313348 161.24835853 377.10064721 157.45129883 C377.07992503 125.96751374 377.04455951 94.48376081 377 63 C371.42202924 60.57587315 371.42202924 60.57587315 365.6875 58.5703125 C364.54933838 58.21682739 364.54933838 58.21682739 363.38818359 57.85620117 C362.20603271 57.49425659 362.20603271 57.49425659 361 57.125 C359.32524496 56.60375012 357.65076937 56.08160163 355.9765625 55.55859375 C355.14543945 55.29933105 354.31431641 55.04006836 353.45800781 54.77294922 C349.75356692 53.60804458 346.06176501 52.40706593 342.375 51.1875 C341.16585938 50.78917969 339.95671875 50.39085938 338.7109375 49.98046875 C336 49 336 49 335 48 C333.0496207 47.54756091 331.08880976 47.14004074 329.125 46.75 C323.41336443 45.56510883 317.81158753 44.16774333 312.1875 42.625 C303.21349615 40.1785646 294.14839014 38.34574107 285.01245117 36.61181641 C283.98482666 36.41507324 282.95720215 36.21833008 281.8984375 36.015625 C280.51664307 35.75700684 280.51664307 35.75700684 279.10693359 35.49316406 C277 35 277 35 276 34 C273.49857321 33.63875026 271.0116515 33.33298131 268.5 33.0625 C267.37368164 32.93500366 267.37368164 32.93500366 266.22460938 32.80493164 C263.81684937 32.53248249 261.40852571 32.26558982 259 32 C255.83275792 31.650746 252.66621779 31.2959077 249.5 30.9375 C248.39688477 30.81870483 248.39688477 30.81870483 247.27148438 30.69750977 C242.11280181 30.11280181 242.11280181 30.11280181 241 29 C239.55710213 28.90704185 238.10970215 28.88253487 236.66381836 28.88647461 C235.7429393 28.88655014 234.82206024 28.88662567 233.87327576 28.88670349 C232.37172691 28.89444542 232.37172691 28.89444542 230.83984375 28.90234375 C229.31043907 28.90446617 229.31043907 28.90446617 227.75013733 28.90663147 C224.47922893 28.91224903 221.20838787 28.9248045 217.9375 28.9375 C215.72591244 28.94251274 213.51432382 28.94707604 211.30273438 28.95117188 C205.86846643 28.96222416 200.43423803 28.97897937 195 29 Z " fill="#FDFDFD" transform="translate(0,0)"/>
<path d="M0 0 C6.53278786 -0.02527002 13.06556321 -0.04283292 19.59838867 -0.05493164 C21.82267732 -0.05997317 24.04696263 -0.06680623 26.27124023 -0.07543945 C29.46078309 -0.08751298 32.65028229 -0.09322996 35.83984375 -0.09765625 C37.34139259 -0.10539818 37.34139259 -0.10539818 38.87327576 -0.11329651 C39.79415482 -0.11337204 40.71503387 -0.11344757 41.66381836 -0.11352539 C42.47878281 -0.115746 43.29374725 -0.11796661 44.13340759 -0.12025452 C46 0 46 0 47 1 C49.43133381 1.34947811 51.84767561 1.64321123 54.2890625 1.90234375 C55.80339301 2.07219794 57.31771567 2.24212212 58.83203125 2.41210938 C61.22131406 2.67500385 63.61079199 2.93595946 66.00048828 3.19506836 C68.30560712 3.44658382 70.60982237 3.70541864 72.9140625 3.96484375 C73.61850494 4.03887924 74.32294739 4.11291473 75.04873657 4.18919373 C79.54497265 4.69865656 83.67390461 5.69742567 88 7 C90.0654508 7.46610307 92.13600873 7.91011931 94.2109375 8.33203125 C95.3656958 8.57091064 96.5204541 8.80979004 97.71020508 9.0559082 C98.9195874 9.3055835 100.12896973 9.55525879 101.375 9.8125 C110.93222655 11.81351145 120.28315327 14.04196307 129.58203125 17.01953125 C132.99656192 18.08673554 132.99656192 18.08673554 136.609375 18.49609375 C139.95245474 18.99293394 142.38097762 19.8481697 145.4375 21.25 C152.78623294 24.43751291 160.3383144 26.70638636 168 29 C170.48028034 29.74642631 172.95912203 30.49724704 175.4375 31.25 C176.48808594 31.56453125 177.53867187 31.8790625 178.62109375 32.203125 C181 33 181 33 182 34 C182.09904312 35.35199184 182.12922276 36.70910715 182.13142776 38.06472015 C182.13526891 38.94594339 182.13911005 39.82716662 182.1430676 40.73509359 C182.14220112 41.71434254 182.14133463 42.69359149 182.14044189 43.70251465 C182.14489858 45.2501046 182.14489858 45.2501046 182.1494453 46.82895899 C182.15817456 50.31501714 182.15964412 53.80104113 182.16113281 57.28710938 C182.16575815 59.7750862 182.17078242 62.26306232 182.17617798 64.7510376 C182.18933488 71.53235946 182.19579025 78.31366784 182.20018864 85.09499931 C182.20294888 89.32955425 182.20718599 93.56410689 182.21169281 97.79866028 C182.22389134 109.52186693 182.23418756 121.24507174 182.2375679 132.96828461 C182.23778747 133.71925868 182.23800703 134.47023276 182.23823325 135.24396363 C182.23845153 135.99675318 182.23866981 136.74954274 182.2388947 137.5251441 C182.23933817 139.0506169 182.23978473 140.5760897 182.24023438 142.1015625 C182.2404558 142.85825236 182.24067723 143.61494221 182.24090537 144.39456207 C182.24484928 156.64251359 182.26228821 168.89040547 182.2855939 181.13833398 C182.30932623 193.71205945 182.32177071 206.28575504 182.32293582 218.85950327 C182.32385184 225.91944529 182.3295852 232.97930973 182.34775543 240.03923035 C182.36479729 246.68430492 182.36639486 253.32925847 182.35761642 259.9743576 C182.35684558 262.41199385 182.36119503 264.84963798 182.37107468 267.28725433 C182.38378419 270.61888339 182.37792218 273.94999062 182.36749268 277.28161621 C182.37957728 278.72372097 182.37957728 278.72372097 182.39190602 280.19495916 C182.29498574 293.46239783 176.50881555 302.15661916 167.4921875 311.63671875 C151.51377337 326.82813636 130.75559226 337.56755537 111 347 C110.38447266 347.29471191 109.76894531 347.58942383 109.13476562 347.89306641 C104.77598314 349.97171002 100.39488949 351.99894128 96 354 C95.33339355 354.30373535 94.66678711 354.6074707 93.97998047 354.92041016 C84.57437872 359.18885128 75.09051455 363.26274505 65.5625 367.25 C64.58031494 367.6622583 63.59812988 368.0745166 62.58618164 368.49926758 C56.94599473 370.8448661 51.27477113 373.03952958 45.51855469 375.08447266 C42.88369318 376.04227904 40.28570283 377.07217675 37.6875 378.125 C28.46320026 381.8147199 22.34068464 383.60462496 12.9375 379.625 C11.49697266 378.96371094 11.49697266 378.96371094 10.02734375 378.2890625 C7.00988025 376.92855226 7.00988025 376.92855226 3.75 376.08203125 C-0.95570775 374.72423849 -5.4079389 372.91442108 -9.9375 371.0625 C-15.28687049 368.88969616 -20.63711171 366.74465608 -26.05004883 364.73510742 C-35.93332236 361.00923581 -45.64546842 356.90992567 -55 352 C-56.78900709 351.07815355 -58.58068861 350.16147894 -60.375 349.25 C-61.56222656 348.63898438 -61.56222656 348.63898438 -62.7734375 348.015625 C-64.85020002 347.06832982 -66.77198572 346.46798473 -69 346 C-69 345.34 -69 344.68 -69 344 C-69.54527344 343.84144531 -70.09054688 343.68289063 -70.65234375 343.51953125 C-76.60046996 341.67917083 -81.68639973 339.22151229 -87 336 C-87.94480225 335.42741455 -87.94480225 335.42741455 -88.90869141 334.84326172 C-91.06909964 333.52842618 -93.22319507 332.20386512 -95.375 330.875 C-96.07761963 330.4430835 -96.78023926 330.01116699 -97.50415039 329.56616211 C-98.17051514 329.14987549 -98.83687988 328.73358887 -99.5234375 328.3046875 C-100.4194165 327.7475708 -100.4194165 327.7475708 -101.33349609 327.17919922 C-103.09534258 325.93253668 -104.49283051 324.54041032 -106 323 C-107.48723243 321.85456654 -108.97594617 320.71084409 -110.48022461 319.58789062 C-123.04739792 310.19980062 -132.35415374 300.73304236 -136 285 C-136.3838651 281.41428501 -136.39399896 277.87216851 -136.36076355 274.26852417 C-136.36332682 273.23500828 -136.3658901 272.20149239 -136.36853105 271.13665783 C-136.37344363 267.69885294 -136.35701754 264.2614944 -136.34057617 260.82373047 C-136.33972936 258.3493806 -136.34020611 255.87502997 -136.34190369 253.40068054 C-136.34258523 248.08657038 -136.33411669 242.77259722 -136.31719017 237.4585228 C-136.29273384 229.775435 -136.28498815 222.09240055 -136.2812262 214.40927805 C-136.27467208 201.94176695 -136.25473923 189.47431497 -136.22631836 177.00683594 C-136.19875081 164.90104466 -136.17753045 152.79526948 -136.16479492 140.68945312 C-136.16400675 139.94234447 -136.16321858 139.19523581 -136.16240653 138.4254875 C-136.15849121 134.67719206 -136.15470013 130.92889651 -136.15097082 127.18060088 C-136.1199073 96.1203576 -136.06687579 65.06018781 -136 34 C-134.75377636 33.35303112 -133.50466146 32.71163003 -132.25439453 32.07250977 C-131.55911652 31.71471939 -130.8638385 31.35692902 -130.14749146 30.98829651 C-126.83385169 29.46332718 -123.42780582 28.70077138 -119.875 27.9375 C-114.86927442 26.84577509 -110.55435508 25.38947671 -106 23 C-97.38443786 19.78183414 -88.40142457 17.90213587 -79.44067383 15.93066406 C-73.45782695 14.60148179 -67.57144887 13.08624738 -61.6875 11.375 C-54.02437315 9.1771271 -46.38502057 7.64043758 -38.51416016 6.40332031 C-35.59262072 5.93464842 -32.67762887 5.43217269 -29.76171875 4.9296875 C-27.54959837 4.55658422 -25.33735884 4.18418671 -23.125 3.8125 C-22.09109131 3.63323975 -21.05718262 3.45397949 -19.99194336 3.26928711 C-13.2677082 2.1662733 -6.81061253 1.78081753 0 2 C0 1.34 0 0.68 0 0 Z M-50.23876953 82.32836914 C-55.01892024 83.49107423 -59.85303224 84.34744355 -64.6875 85.25390625 C-67.66059821 85.92355455 -70.19592334 86.83922151 -73 88 C-74.82550266 88.48859042 -76.65975162 88.94527167 -78.5 89.375 C-83.73727305 90.65423719 -88.86716696 92.1364353 -94.0078125 93.7578125 C-97.28402923 94.78808033 -100.57396771 95.76769525 -103.8671875 96.7421875 C-104.90641357 97.05188477 -105.94563965 97.36158203 -107.01635742 97.68066406 C-109.11146229 98.30456626 -111.20796451 98.92379725 -113.3059082 99.53808594 C-114.27101318 99.8271582 -115.23611816 100.11623047 -116.23046875 100.4140625 C-117.10082764 100.6713916 -117.97118652 100.9287207 -118.86791992 101.19384766 C-121.17230849 101.89809186 -121.17230849 101.89809186 -123 104 C-123.20599776 106.41074724 -123.28686194 108.70791999 -123.28088379 111.12060547 C-123.28682603 111.86254874 -123.29276828 112.60449202 -123.29889059 113.36891842 C-123.31630748 115.86838649 -123.31928465 118.36766346 -123.32226562 120.8671875 C-123.3315194 122.65419425 -123.34156837 124.44119704 -123.35235596 126.22819519 C-123.37864304 131.09429394 -123.39150273 135.96033744 -123.40037727 140.82649612 C-123.40623567 143.86756384 -123.41444495 146.90861641 -123.42338562 149.94967651 C-123.45075289 159.46656444 -123.47007467 168.98341781 -123.4777894 178.50034237 C-123.48673954 189.48113784 -123.52177578 200.46143397 -123.57979059 211.44207764 C-123.62307785 219.93053706 -123.64320099 228.41885634 -123.64587164 236.90742493 C-123.64796497 241.97613704 -123.65971863 247.04438033 -123.69551086 252.11297607 C-123.72856351 256.88691424 -123.73274051 261.66003371 -123.71523285 266.43404579 C-123.71369659 268.18110668 -123.72231874 269.92821235 -123.74214935 271.67516136 C-123.84643936 281.43967629 -123.51998949 289.13353468 -117 297 C-116.55375526 297.54903992 -116.10751053 298.09807983 -115.64774323 298.66375732 C-106.53211195 309.08544654 -94.71710434 315.92091613 -83 323 C-82.05125 323.58394531 -81.1025 324.16789063 -80.125 324.76953125 C-79.25875 325.29933594 -78.3925 325.82914063 -77.5 326.375 C-76.37078125 327.06722656 -76.37078125 327.06722656 -75.21875 327.7734375 C-72.87127922 329.07115902 -70.50231476 330.04009565 -68 331 C-65.09615107 332.3827852 -62.26135209 333.85409178 -59.453125 335.421875 C-54.71222809 338.06734786 -50.137564 340.45478554 -45.0078125 342.23046875 C-42.67921024 343.1229486 -40.52551066 344.22579993 -38.3125 345.375 C-33.56416268 347.79952981 -28.71741945 349.69432751 -23.7265625 351.55859375 C-19.4153448 353.22614022 -15.18282172 355.0479435 -10.9375 356.875 C-3.14954617 360.21303463 4.73927165 363.1181923 12.76586914 365.82958984 C13.56758545 366.10109863 14.36930176 366.37260742 15.1953125 366.65234375 C15.90703613 366.88945068 16.61875977 367.12655762 17.35205078 367.37084961 C19 368 19 368 20 369 C25.43623869 369.41817221 29.52504483 368.34282942 34.4375 366.1875 C35.76279186 365.63096483 37.08831041 365.07496917 38.4140625 364.51953125 C39.59742188 364.01808594 40.78078125 363.51664062 42 363 C43.43311196 362.44682812 44.86959572 361.90210177 46.3125 361.375 C50.90717745 359.66173044 55.45306559 357.83554525 60 356 C60 355.34 60 354.68 60 354 C60.54527344 353.90203125 61.09054687 353.8040625 61.65234375 353.703125 C66.76321624 352.68968704 71.20359884 351.16786932 75.9140625 348.953125 C78.54483766 347.75104796 81.23767935 346.84994481 84 346 C84 345.34 84 344.68 84 344 C85.11375 343.87625 86.2275 343.7525 87.375 343.625 C91.03103677 343.3534187 91.03103677 343.3534187 93 341 C94.64957497 340.369954 96.32010219 339.79405781 98 339.25 C102.91685554 337.52141797 107.08901502 335.32799055 111.48828125 332.55859375 C114.00846866 330.99474496 116.57072722 329.58285447 119.1875 328.1875 C130.33238242 322.14414827 140.93933647 315.5528177 151.171875 308.06640625 C153.0845536 306.6688828 155.02900453 305.31399698 157 304 C157 303.34 157 302.68 157 302 C157.58523438 301.75378906 158.17046875 301.50757813 158.7734375 301.25390625 C161.36513005 299.79437413 162.76876463 298.2557499 164.625 295.9375 C165.21539062 295.22464844 165.80578125 294.51179687 166.4140625 293.77734375 C171.38273103 285.07605477 170.30371213 274.38558539 170.30639648 264.68603516 C170.31402678 262.93589935 170.32245577 261.18576688 170.33161926 259.43563843 C170.3534684 254.70470928 170.36234866 249.9738447 170.36744571 245.24287081 C170.37109661 242.2867472 170.37734006 239.33064035 170.3844471 236.37452316 C170.4088953 226.0616863 170.42198625 215.74889952 170.42553711 205.43603516 C170.42918253 195.81946667 170.45916145 186.20321532 170.50094169 176.58674395 C170.53557622 168.32585096 170.55108425 160.06506363 170.55178314 151.80409849 C170.55257743 146.87159153 170.56138776 141.93940904 170.58978081 137.00697708 C170.61584878 132.37584561 170.61823035 127.74531055 170.60212517 123.11413956 C170.60030243 121.41251836 170.60707532 119.71086367 170.62294388 118.00931549 C170.64324873 115.69141735 170.63294865 113.37563787 170.61473083 111.05776978 C170.61674216 109.75959131 170.61875349 108.46141285 170.62082577 107.12389565 C170.3179512 103.82601907 170.3179512 103.82601907 167.5856638 102.10588646 C165.42610062 101.18224291 163.36936421 100.34658913 161.109375 99.71875 C160.40425781 99.51805908 159.69914062 99.31736816 158.97265625 99.1105957 C158.23917969 98.90909912 157.50570313 98.70760254 156.75 98.5 C155.22359104 98.06770103 153.69754466 97.63411965 152.171875 97.19921875 C151.44677734 96.99345215 150.72167969 96.78768555 149.97460938 96.57568359 C147.62419003 95.89043522 145.31114539 95.11976177 143 94.3125 C139.37568005 93.0622501 135.73060062 92.24585228 131.98046875 91.46484375 C130 91 130 91 127.5625 90 C125.21188708 89.08268764 123.1565412 88.5925593 120.6875 88.125 C116.20921412 87.27578431 111.79340731 86.23971625 107.375 85.125 C106.68180664 84.95242676 105.98861328 84.77985352 105.27441406 84.60205078 C101.99972453 83.78149466 98.74840368 82.92747279 95.50390625 81.9921875 C49.92107111 69.31087301 -4.48935708 71.16252056 -50.23876953 82.32836914 Z " fill="#050505" transform="translate(195,29)"/>
<path d="M0 0 C12.07028482 2.38229306 23.07776799 16.99787315 31.625 25.375 C32.53113037 26.24898437 32.53113037 26.24898437 33.45556641 27.140625 C36.66398494 30.3242858 38.36148079 32.74586296 40 37 C40.6182666 37.29994873 41.2365332 37.59989746 41.87353516 37.90893555 C44.35027548 39.17972229 45.2968732 40.39523211 46.875 42.66796875 C47.38546875 43.39693359 47.8959375 44.12589844 48.421875 44.87695312 C48.94265625 45.63943359 49.4634375 46.40191406 50 47.1875 C50.52078125 47.93064453 51.0415625 48.67378906 51.578125 49.43945312 C60 61.57248264 60 61.57248264 60 65 C60.66 65 61.32 65 62 65 C74.47340061 88.65273084 74.47340061 88.65273084 74 100 C74.66 100 75.32 100 76 100 C76.57607667 116.57820634 76.57607667 116.57820634 73 122 C70.81271089 124.21429268 68.47629419 126.11975036 66 128 C64.5459375 129.175625 64.5459375 129.175625 63.0625 130.375 C62.381875 130.91125 61.70125 131.4475 61 132 C61.61902544 134.82625754 62.51755527 137.17042882 63.8125 139.75 C65.78729021 144.10466559 67.07283697 148.50571226 68.25 153.125 C68.4250708 153.79370117 68.6001416 154.46240234 68.78051758 155.15136719 C69.84844036 159.51335074 70.16293352 163.51932832 70 168 C70.66 168 71.32 168 72 168 C72.268125 166.7625 72.53625 165.525 72.8125 164.25 C74.09357816 158.47132371 75.54399417 152.73666298 77 147 C77.33 147 77.66 147 78 147 C78 166.14 78 185.28 78 205 C77.34 205 76.68 205 76 205 C76 204.34 76 203.68 76 203 C75.29101562 202.93296875 74.58203125 202.8659375 73.8515625 202.796875 C70.10493663 201.7498727 68.21140711 199.89106227 65.375 197.25 C64.43398437 196.38890625 63.49296875 195.5278125 62.5234375 194.640625 C58.20189745 190.11839423 56.71077141 187.19750872 56.6875 180.9375 C55.72907367 164.89742169 43.58511501 153.53681855 33.06640625 142.5078125 C31.0392338 140.04761455 29.98690397 138.00924818 29 135 C30.98 134.67 32.96 134.34 35 134 C35 133.34 35 132.68 35 132 C38.08809695 130.23537317 39.23312136 130 43 130 C43 129.34 43 128.68 43 128 C47.38461538 125 47.38461538 125 50 125 C50 124.34 50 123.68 50 123 C52.375 120.375 52.375 120.375 55 118 C55.66 118 56.32 118 57 118 C57.69311728 110.35459337 57.69311728 110.35459337 55.125 103.375 C53.22657332 100.95980151 53.22657332 100.95980151 51 100 C51 99.34 51 98.68 51 98 C50.34 98 49.68 98 49 98 C48.855625 98.94875 48.71125 99.8975 48.5625 100.875 C48 104 48 104 47 106 C45.1875 105.875 45.1875 105.875 43 105 C39.75475784 100.24803827 39.71356634 96.53771745 40 91 C39.43152344 90.81824219 38.86304688 90.63648438 38.27734375 90.44921875 C37.50519531 90.19785156 36.73304688 89.94648438 35.9375 89.6875 C35.18339844 89.44386719 34.42929688 89.20023437 33.65234375 88.94921875 C30.36532724 87.7728638 27.19907353 86.39788158 24 85 C29.63939927 93.66710954 35.32972259 102.08137458 42 110 C38.59912217 110 37.9135653 109.4971297 35.2265625 107.578125 C34.49018555 107.05299316 33.75380859 106.52786133 32.99511719 105.98681641 C32.21297852 105.41366699 31.43083984 104.84051758 30.625 104.25 C29.42085449 103.37287354 29.42085449 103.37287354 28.19238281 102.47802734 C20.96873202 97.13010732 14.35545747 91.34606979 8 85 C7.34386719 84.35546875 6.68773437 83.7109375 6.01171875 83.046875 C-2.42158192 74.09041672 -4.01765664 61.26887454 -4.75390625 49.50390625 C-4.84892324 47.00416782 -4.84892324 47.00416782 -6 45 C-7.22999528 29.66792246 -6.10353151 14.24157353 0 0 Z " fill="#050505" transform="translate(137,145)"/>
<path d="M0 0 C2.88922536 1.45897264 3.60507128 3.06887263 4.96484375 5.9921875 C5.65541335 8.56690379 6.21070536 11.00188854 6.65234375 13.6171875 C6.77754395 14.35791504 6.90274414 15.09864258 7.03173828 15.86181641 C9.2526953 30.3025696 8.20770336 44.4509809 5.40039062 58.72851562 C4.97859994 60.92069233 4.6185561 63.11679146 4.26171875 65.3203125 C2.37609303 75.70770898 -2.30035009 82.10691045 -10.03515625 88.9921875 C-10.54788086 89.45963379 -11.06060547 89.92708008 -11.58886719 90.40869141 C-17.64300637 95.88993734 -24.05899846 100.87650039 -30.66015625 105.6796875 C-31.25223877 106.1142627 -31.84432129 106.54883789 -32.4543457 106.99658203 C-36.67231 109.9921875 -36.67231 109.9921875 -40.03515625 109.9921875 C-39.66229492 109.51386475 -39.28943359 109.03554199 -38.90527344 108.54272461 C-37.19393412 106.341938 -35.48952413 104.13587676 -33.78515625 101.9296875 C-33.19863281 101.17751953 -32.61210937 100.42535156 -32.0078125 99.65039062 C-28.61989804 95.25371512 -25.65998633 90.88450694 -23.03515625 85.9921875 C-23.95039063 86.353125 -24.865625 86.7140625 -25.80859375 87.0859375 C-27.59136719 87.78203125 -27.59136719 87.78203125 -29.41015625 88.4921875 C-30.59351563 88.95625 -31.776875 89.4203125 -32.99609375 89.8984375 C-36.03515625 90.9921875 -36.03515625 90.9921875 -38.03515625 90.9921875 C-38.00035156 91.58386719 -37.96554687 92.17554688 -37.9296875 92.78515625 C-37.64026431 101.23355713 -37.64026431 101.23355713 -41.03515625 104.9921875 C-42.35515625 104.9921875 -43.67515625 104.9921875 -45.03515625 104.9921875 C-45.69515625 104.3321875 -46.35515625 103.6721875 -47.03515625 102.9921875 C-47.03515625 101.6721875 -47.03515625 100.3521875 -47.03515625 98.9921875 C-51.928842 102.82202852 -54.563189 104.92440038 -55.53515625 111.2421875 C-54.65227813 117.86377338 -50.4308869 122.0921412 -45.34765625 126.1796875 C-39.78604383 130.10932099 -33.4771811 132.84484588 -27.03515625 134.9921875 C-28.57113813 138.44814674 -30.61912302 141.09294762 -33.03515625 143.9921875 C-33.834375 144.96027344 -34.63359375 145.92835938 -35.45703125 146.92578125 C-37.1734484 148.98061909 -38.91535284 151.01013203 -40.67578125 153.02734375 C-48.93590881 162.61057557 -53.16780958 169.27816926 -53.75 182.01171875 C-54.45327905 189.36242987 -59.60554877 194.39286205 -65.03515625 198.9921875 C-71.99989177 203.9921875 -71.99989177 203.9921875 -75.03515625 203.9921875 C-75.03515625 186.8321875 -75.03515625 169.6721875 -75.03515625 151.9921875 C-72.58998774 154.43735601 -72.30934103 156.16297057 -71.47265625 159.4921875 C-70.52835294 163.3446047 -70.52835294 163.3446047 -69.03515625 166.9921875 C-68.84723511 166.13222168 -68.84723511 166.13222168 -68.65551758 165.25488281 C-64.21712638 145.18248508 -64.21712638 145.18248508 -59.85546875 136.171875 C-58.72677103 133.86715437 -58.72677103 133.86715437 -60.03515625 130.9921875 C-61.99160114 129.27211869 -61.99160114 129.27211869 -64.34765625 127.6171875 C-68.77469752 124.28107055 -72.24128119 121.37381267 -74.03515625 115.9921875 C-75.43432185 100.76127049 -71.31562393 87.28123393 -64.03515625 73.9921875 C-63.1386923 72.09665228 -62.24290219 70.20079828 -61.34765625 68.3046875 C-50.13797077 46.02757144 -32.20787675 24.19852179 -12.5078125 8.9375 C-9.42227172 6.51001294 -6.60292868 3.84423414 -3.7890625 1.109375 C-2.03515625 -0.0078125 -2.03515625 -0.0078125 0 0 Z " fill="#040404" transform="translate(298.03515625,145.0078125)"/>
<path d="M0 0 C1.45968003 2.91936007 0.49892958 4.69368774 -0.3125 7.8125 C-0.57675781 8.85019531 -0.84101563 9.88789063 -1.11328125 10.95703125 C-1.92102593 13.72898327 -2.87542763 16.34325917 -4 19 C4.70110469 15.75841198 13.38628149 12.4678607 22 9 C17.98982116 19.79507737 11.44889121 29.31484323 4 38 C3.51015625 38.62261719 3.0203125 39.24523437 2.515625 39.88671875 C-1.09844268 44.40430335 -5.32934079 47.80363895 -9.92578125 51.30078125 C-12.08843438 52.83645658 -12.08843438 52.83645658 -13 55 C-10.03 55.33 -7.06 55.66 -4 56 C-5.44425341 58.88850682 -7.61519344 59.13644776 -10.5390625 60.13671875 C-13.02489466 60.9733642 -13.02489466 60.9733642 -15.4609375 62.08203125 C-22.2619435 64.83945918 -28.55694169 65.39537136 -35.8125 65.4375 C-37.15574341 65.4523645 -37.15574341 65.4523645 -38.52612305 65.4675293 C-44.13326145 65.39485869 -48.00877756 64.5576911 -53 62 C-53.80308594 61.61457031 -54.60617187 61.22914063 -55.43359375 60.83203125 C-57.2890625 59.88802083 -59.14453125 58.94401042 -61 58 C-61 57.34 -61 56.68 -61 56 C-61.804375 55.731875 -62.60875 55.46375 -63.4375 55.1875 C-64.283125 54.795625 -65.12875 54.40375 -66 54 C-66.495 52.515 -66.495 52.515 -67 51 C-65.28876953 50.4121875 -65.28876953 50.4121875 -63.54296875 49.8125 C-58.80970127 48.03115159 -54.60835927 45.64950276 -50.3125 43 C-49.53084473 42.52014648 -48.74918945 42.04029297 -47.94384766 41.54589844 C-40.69735412 36.99180731 -34.3256991 31.73932811 -28 26 C-26.46114788 24.62185079 -24.9198938 23.24637312 -23.375 21.875 C-22.78460938 21.33617187 -22.19421875 20.79734375 -21.5859375 20.2421875 C-20 19 -20 19 -17 18 C-17 17.34 -17 16.68 -17 16 C-15.56640625 14.58984375 -15.56640625 14.58984375 -13.5625 12.9375 C-8.77658299 8.87931634 -4.3885623 4.47999069 0 0 Z " fill="#060606" transform="translate(319,212)"/>
<path d="M0 0 C0.66 0 1.32 0 2 0 C3.3046875 1.328125 3.3046875 1.328125 4.875 3.25 C13.04861667 12.83110667 22.07236944 21.26489142 32 29 C33.06399648 29.84350484 34.12779166 30.68726367 35.19140625 31.53125 C41.86703873 36.78790268 48.71094812 41.61956017 56 46 C56.680625 46.41121094 57.36125 46.82242188 58.0625 47.24609375 C61.27985187 49.13906155 64.49115624 50.72405681 68 52 C64.8685777 55.42379097 61.38830271 57.81879601 57.4375 60.1875 C56.86064453 60.54263672 56.28378906 60.89777344 55.68945312 61.26367188 C46.01595541 67.14364108 31.97308575 65.79466356 21 64 C17.8125 62.625 17.8125 62.625 15 61 C12.66609625 60.19011545 10.31855308 59.45813588 7.953125 58.74609375 C6 58 6 58 4 56 C8.95 55.505 8.95 55.505 14 55 C13.278125 54.278125 12.55625 53.55625 11.8125 52.8125 C10.07877299 51.07877299 8.34771833 49.34236298 6.62109375 47.6015625 C4.98708753 45.97973218 3.33027983 44.3801762 1.640625 42.81640625 C-5.33642707 36.2383686 -10.11474703 29.15139352 -15 21 C-15.62519531 19.99453125 -16.25039062 18.9890625 -16.89453125 17.953125 C-21 11.29976581 -21 11.29976581 -21 9 C-20.27981689 9.28987793 -19.55963379 9.57975586 -18.81762695 9.87841797 C-16.19236994 10.9234254 -13.55893487 11.94077324 -10.91796875 12.9453125 C-9.98662109 13.29980469 -9.05527344 13.65429688 -8.09570312 14.01953125 C-7.13599609 14.38433594 -6.17628906 14.74914062 -5.1875 15.125 C-4.20845703 15.49753906 -3.22941406 15.87007812 -2.22070312 16.25390625 C0.18605465 17.16964823 2.59295989 18.08500047 5 19 C4.6390625 17.87980469 4.278125 16.75960937 3.90625 15.60546875 C3.4372741 14.13288442 2.9685365 12.66022419 2.5 11.1875 C2.14228516 10.08051758 2.14228516 10.08051758 1.77734375 8.95117188 C0.80059864 5.86744804 0 3.25504191 0 0 Z " fill="#040404" transform="translate(117,212)"/>
<path d="M0 0 C1.23363281 0.00410889 2.46726562 0.00821777 3.73828125 0.01245117 C4.72574341 0.0131385 4.72574341 0.0131385 5.7331543 0.01383972 C7.12518109 0.01686111 8.51720453 0.02474411 9.90917969 0.03710938 C12.04243928 0.0553486 14.17526438 0.05761916 16.30859375 0.05737305 C26.75568492 0.09537176 26.75568492 0.09537176 29.05078125 1.24291992 C29.05078125 3.88291992 29.05078125 6.52291992 29.05078125 9.24291992 C30.12392578 9.20811523 30.12392578 9.20811523 31.21875 9.17260742 C37.81438126 9.05315226 43.98034671 9.559866 50.4765625 10.67260742 C55.31610369 11.44481837 60.17614863 11.96565135 65.05151367 12.45727539 C69.57310029 12.94850684 73.69602474 13.96358477 78.05078125 15.24291992 C81.21926467 15.76329129 84.389456 16.17577786 87.57421875 16.58276367 C91.0818692 17.24882314 94.25489755 18.25761107 97.61914062 19.42480469 C102.78639627 21.16330606 108.06940471 22.5386311 113.32226562 23.99291992 C120.9717913 26.14172596 128.22818493 28.85160102 135.55078125 31.93041992 C136.59234375 32.36741211 137.63390625 32.8044043 138.70703125 33.25463867 C139.48046875 33.58077148 140.25390625 33.9069043 141.05078125 34.24291992 C141.05078125 35.23291992 141.05078125 36.22291992 141.05078125 37.24291992 C136.57302355 36.78600587 132.98637503 35.84674188 128.88256836 34.02978516 C124.13953739 31.99236162 119.15982733 30.5225475 114.24755859 28.94750977 C112.76739707 28.4727658 111.28857256 27.99383537 109.81103516 27.51098633 C83.65650784 19.01090357 56.36632685 14.84294386 29.05078125 12.24291992 C29.09203125 13.02666992 29.13328125 13.81041992 29.17578125 14.61791992 C29.05078125 17.24291992 29.05078125 17.24291992 27.05078125 19.24291992 C24.1015625 19.50170898 24.1015625 19.50170898 20.36328125 19.50854492 C19.70497314 19.51045837 19.04666504 19.51237183 18.3684082 19.51434326 C16.97639585 19.51570442 15.58437078 19.51201275 14.19238281 19.50366211 C12.05895536 19.49296092 9.92636994 19.50355898 7.79296875 19.51635742 C6.44140439 19.51503581 5.08984055 19.51247339 3.73828125 19.50854492 C2.50464844 19.50628906 1.27101563 19.5040332 0 19.50170898 C-2.94921875 19.24291992 -2.94921875 19.24291992 -4.94921875 17.24291992 C-5.07421875 14.61791992 -5.07421875 14.61791992 -4.94921875 12.24291992 C-38.45206612 15.46423634 -72.92839006 19.27379203 -103.94921875 33.24291992 C-105.69569544 33.98048564 -107.44532774 34.71066276 -109.19921875 35.43041992 C-110.029375 35.77459961 -110.85953125 36.1187793 -111.71484375 36.47338867 C-113.94921875 37.24291992 -113.94921875 37.24291992 -116.94921875 37.24291992 C-116.94921875 35.92291992 -116.94921875 34.60291992 -116.94921875 33.24291992 C-114.70189773 32.40167676 -112.4518309 31.5697716 -110.19921875 30.74291992 C-109.565 30.50444336 -108.93078125 30.2659668 -108.27734375 30.02026367 C-104.91635268 28.79490234 -102.58050288 28.24291992 -98.94921875 28.24291992 C-98.94921875 27.58291992 -98.94921875 26.92291992 -98.94921875 26.24291992 C-93.26171875 24.61791992 -93.26171875 24.61791992 -91.40234375 24.08886719 C-87.54251946 22.98936489 -83.68739996 21.87529388 -79.8359375 20.74682617 C-54.19202073 13.26510632 -54.19202073 13.26510632 -40.9609375 12.45385742 C-38.95318467 12.45672333 -38.95318467 12.45672333 -37.94921875 11.24291992 C-35.05084188 10.83058593 -32.17226851 10.48057994 -29.26171875 10.18041992 C-28.40989014 10.09099121 -27.55806152 10.0015625 -26.68041992 9.90942383 C-19.41101641 9.19440053 -12.25450946 9.02840894 -4.94921875 9.24291992 C-4.99046875 8.12916992 -5.03171875 7.01541992 -5.07421875 5.86791992 C-4.91983282 1.39072796 -4.52324331 0.37256847 0 0 Z " fill="#EFEFEF" transform="translate(205.94921875,78.757080078125)"/>
<path d="M0 0 C0.556875 0.46019531 1.11375 0.92039063 1.6875 1.39453125 C-0.42807034 14.08795331 -6.31109193 23.3588321 -15.3125 32.39453125 C-15.81394531 33.00167969 -16.31539062 33.60882813 -16.83203125 34.234375 C-18.3125 35.39453125 -18.3125 35.39453125 -20.234375 35.3125 C-29.48537539 31.22606186 -35.25799581 20.18755135 -39.3125 11.39453125 C-40.31636823 8.06635401 -40.993611 4.85447693 -41.3125 1.39453125 C-29.72730336 -5.88759235 -11.88562054 -8.25167237 0 0 Z " fill="#0D0D0D" transform="translate(238.3125,191.60546875)"/>
<path d="M0 0 C3.96 0 7.92 0 12 0 C13.32 3.63 14.64 7.26 16 11 C17.485 5.555 17.485 5.555 19 0 C23.29 0 27.58 0 32 0 C32 0.99 32 1.98 32 3 C31.01 3 30.02 3 29 3 C29 8.61 29 14.22 29 20 C29.99 20 30.98 20 32 20 C32 21.32 32 22.64 32 24 C28.04 24 24.08 24 20 24 C20 22.68 20 21.36 20 20 C20.66 20 21.32 20 22 20 C21.505 15.545 21.505 15.545 21 11 C20.79503906 11.85464844 20.59007812 12.70929687 20.37890625 13.58984375 C20.10949219 14.69457031 19.84007812 15.79929687 19.5625 16.9375 C19.29566406 18.03964844 19.02882812 19.14179687 18.75390625 20.27734375 C18 23 18 23 17 24 C15.33382885 24.04063832 13.66611905 24.042721 12 24 C11.516941 22.60550891 11.03874483 21.20933293 10.5625 19.8125 C10.29566406 19.03519531 10.02882812 18.25789063 9.75390625 17.45703125 C9.00486577 15.01585787 8.50078358 12.50391792 8 10 C7.67 13.63 7.34 17.26 7 21 C7.66 21 8.32 21 9 21 C9 21.99 9 22.98 9 24 C5 24 1 24 -3 24 C-3.33 24.33 -3.66 24.66 -4 25 C-6.33297433 25.04092937 -8.66705225 25.04241723 -11 25 C-13.09350689 21.5980513 -13.17942163 18.94727588 -13 15 C-14.32 15 -15.64 15 -17 15 C-17 17.31 -17 19.62 -17 22 C-16.01 22 -15.02 22 -14 22 C-14 23.32 -14 24.64 -14 26 C-20.435 26.495 -20.435 26.495 -27 27 C-27 25.68 -27 24.36 -27 23 C-26.34 23 -25.68 23 -25 23 C-25.165 21.865625 -25.33 20.73125 -25.5 19.5625 C-26.07576084 15.02939706 -26.09505266 10.56252762 -26 6 C-26.99 6 -27.98 6 -29 6 C-29 4.68 -29 3.36 -29 2 C-10.85123857 -0.16240562 -10.85123857 -0.16240562 -6.3125 2.6875 C-5 5 -5 5 -5.25 7.5625 C-5.4975 8.366875 -5.745 9.17125 -6 10 C-6 13.10551666 -5.4606285 14.35261084 -4 17 C-3.01 17 -2.02 17 -1 17 C-0.67 17.99 -0.34 18.98 0 20 C0.66 20 1.32 20 2 20 C2 14.72 2 9.44 2 4 C1.34 4 0.68 4 0 4 C0 2.68 0 1.36 0 0 Z " fill="#E8E8E8" transform="translate(206,50)"/>
<path d="M0 0 C8.57142857 1 8.57142857 1 12 2 C12 3.32 12 4.64 12 6 C11.01 6 10.02 6 9 6 C9.33 7.65 9.66 9.3 10 11 C11.98 10.34 13.96 9.68 16 9 C16 8.34 16 7.68 16 7 C15.34 7 14.68 7 14 7 C14 6.01 14 5.02 14 4 C15.6254308 4.14095064 17.25034051 4.28792087 18.875 4.4375 C19.77992188 4.51871094 20.68484375 4.59992188 21.6171875 4.68359375 C24 5 24 5 26 6 C26 7.32 26 8.64 26 10 C23.03 10.66 20.06 11.32 17 12 C18.32 16.29 19.64 20.58 21 25 C22.98 25.33 24.96 25.66 27 26 C27.47050781 25.18015625 27.94101562 24.3603125 28.42578125 23.515625 C29.04839844 22.43796875 29.67101562 21.3603125 30.3125 20.25 C30.92738281 19.18265625 31.54226563 18.1153125 32.17578125 17.015625 C33.67095351 14.54394837 35.21376516 12.26439616 37 10 C39.76276177 10.52268466 42.3260876 11.10869587 45 12 C45.83211276 17.03854106 46.1078534 21.8125662 46.0625 26.9375 C46.05798828 27.62134766 46.05347656 28.30519531 46.04882812 29.00976562 C46.0371956 30.67321604 46.01926694 32.3366205 46 34 C46.66 34 47.32 34 48 34 C48 35.32 48 36.64 48 38 C46.39536551 37.68991116 44.79130769 37.37683713 43.1875 37.0625 C42.29417969 36.88847656 41.40085937 36.71445313 40.48046875 36.53515625 C38 36 38 36 35 35 C35 33.68 35 32.36 35 31 C35.99 31 36.98 31 38 31 C38 29.68 38 28.36 38 27 C36.02 27 34.04 27 32 27 C31.505 28.485 31.505 28.485 31 30 C31.66 30 32.32 30 33 30 C33 30.99 33 31.98 33 33 C27.49191603 32.40984815 22.35121931 31.43336231 17 30 C17 29.34 17 28.68 17 28 C14.69 27.67 12.38 27.34 10 27 C10 25.68 10 24.36 10 23 C10.66 23 11.32 23 12 23 C11.67 21.02 11.34 19.04 11 17 C8.9837767 17.71563266 8.9837767 17.71563266 7 19 C6.19471111 21.05000871 6.19471111 21.05000871 6 23 C6.66 23 7.32 23 8 23 C8 23.99 8 24.98 8 26 C3.12335991 26.34833144 0.22949995 25.41685712 -4 23 C-4 22.01 -4 21.02 -4 20 C-3.01 20 -2.02 20 -1 20 C-0.87625 18.845 -0.7525 17.69 -0.625 16.5 C-0.09721115 12.21649625 0.88398037 8.16647328 2 4 C1.34 4 0.68 4 0 4 C0 2.68 0 1.36 0 0 Z " fill="#E4E4E4" transform="translate(304,61)"/>
<path d="M0 0 C0 3 0 3 -1.93359375 5.15625 C-2.75988281 5.9296875 -3.58617187 6.703125 -4.4375 7.5 C-7.9948738 10.73958021 -7.9948738 10.73958021 -10 15 C-9.01 15.33 -8.02 15.66 -7 16 C-34.78656126 36 -34.78656126 36 -42 36 C-39.28395285 38.87420123 -39.28395285 38.87420123 -36 41 C-36 41.66 -36 42.32 -36 43 C-35.113125 43.268125 -34.22625 43.53625 -33.3125 43.8125 C-30.21948994 44.92131493 -27.79510781 46.30822422 -25 48 C-21.19378285 49.26873905 -17.22489034 49.3333239 -13.25 49.5625 C-12.20392578 49.62727539 -12.20392578 49.62727539 -11.13671875 49.69335938 C-9.42468078 49.79889596 -7.71236439 49.8998991 -6 50 C-6 50.33 -6 50.66 -6 51 C-11.28 51 -16.56 51 -22 51 C-22 53.31 -22 55.62 -22 58 C-23.65 58.66 -25.3 59.32 -27 60 C-25.68 57.69 -24.36 55.38 -23 53 C-24.2065625 52.9071875 -24.2065625 52.9071875 -25.4375 52.8125 C-35.18785596 50.58873461 -45.75287244 43.1889011 -51.1875 34.75390625 C-52.63051345 31.63893971 -52.54718479 29.34390704 -52 26 C-50.10441227 22.60101511 -48.03312915 19.48165112 -45 17 C-44.34 17 -43.68 17 -43 17 C-42.34 18.65 -41.68 20.3 -41 22 C-39.68 22 -38.36 22 -37 22 C-35.22879941 18.96070249 -34.92396151 17.03800895 -35.0625 13.5625 C-34.8671875 11.1953125 -34.8671875 11.1953125 -34 9 C-29.3517394 5.67104769 -24.69925812 4 -19 4 C-20.55166733 8.60269859 -23.03537141 12.12552134 -25.875 16 C-26.30941406 16.60328125 -26.74382812 17.2065625 -27.19140625 17.828125 C-29.70242085 21.29679381 -32.2951168 24.67865505 -35 28 C-22.33316218 19.94821162 -10.61502185 10.61502185 0 0 Z " fill="#EDEDED" transform="translate(294,227)"/>
<path d="M0 0 C5.81203777 0.45884509 11.505855 2.22754252 16 6 C17.09973538 8.89314999 17.48251136 11.3970231 17.71875 14.4765625 C17.83182761 17.24512259 17.83182761 17.24512259 20 20 C20.99 20.33 21.98 20.66 23 21 C23.66 18.36 24.32 15.72 25 13 C25.66 13 26.32 13 27 13 C27 13.66 27 14.32 27 15 C27.99 15.33 28.98 15.66 30 16 C32.84317519 19.33057666 34.26435949 21.83880754 34.3125 26.1875 C33.83553457 32.00647827 32.28792875 34.13040577 28 38 C27.34 38 26.68 38 26 38 C26 38.66 26 39.32 26 40 C21.61538462 43 21.61538462 43 19 43 C19 43.66 19 44.32 19 45 C16.09399739 46.25664978 14.20395416 47 11 47 C11 47.66 11 48.32 11 49 C8.03824877 48.38722388 6.61941217 47.74627478 4 46 C4.70125 45.62488281 5.4025 45.24976563 6.125 44.86328125 C11.88348294 41.75714303 17.49300126 38.53279165 23 35 C22.40316406 34.70480469 21.80632812 34.40960938 21.19140625 34.10546875 C10.7665321 28.84657501 1.05182495 22.35321088 -8 15 C-6.35 13.68 -4.7 12.36 -3 11 C3.27 15.62 9.54 20.24 16 25 C14.27768454 21.55536907 12.67650408 19.23276945 10.25 16.3125 C0 3.6870438 0 3.6870438 0 0 Z " fill="#E7E7E7" transform="translate(161,230)"/>
<path d="M0 0 C4.95 0 9.9 0 15 0 C15 2.64 15 5.28 15 8 C15.71542969 7.97679688 16.43085938 7.95359375 17.16796875 7.9296875 C23.76360001 7.81023234 29.92956546 8.31694607 36.42578125 9.4296875 C41.26532244 10.20189844 46.12536738 10.72273143 51.00073242 11.21435547 C55.52231904 11.70558692 59.64524349 12.72066485 64 14 C67.16848342 14.52037136 70.33867475 14.93285794 73.5234375 15.33984375 C77.03108795 16.00590322 80.2041163 17.01469115 83.56835938 18.18188477 C88.73561502 19.92038614 94.01862346 21.29571118 99.27148438 22.75 C106.92101005 24.89880604 114.17740368 27.60868109 121.5 30.6875 C123.06234375 31.34298828 123.06234375 31.34298828 124.65625 32.01171875 C125.4296875 32.33785156 126.203125 32.66398437 127 33 C127 33.99 127 34.98 127 36 C122.5222423 35.54308595 118.93559378 34.60382196 114.83178711 32.78686523 C110.08875614 30.7494417 105.10904608 29.27962758 100.19677734 27.70458984 C98.71661582 27.22984588 97.23779131 26.75091545 95.76025391 26.26806641 C69.60572659 17.76798365 42.3155456 13.60002394 15 11 C15.04125 11.78375 15.0825 12.5675 15.125 13.375 C15 16 15 16 13 18 C10.01904297 18.22705078 10.01904297 18.22705078 6.2421875 18.1953125 C5.57913605 18.1924826 4.91608459 18.18965271 4.23294067 18.18673706 C2.11344417 18.17553435 -0.00563104 18.15043051 -2.125 18.125 C-3.56119182 18.11497028 -4.99739025 18.10584441 -6.43359375 18.09765625 C-9.95586628 18.075595 -13.47789203 18.04106494 -17 18 C-16.34 16.35 -15.68 14.7 -15 13 C-14.01 13.33 -13.02 13.66 -12 14 C-10.51876453 14.0806622 -9.03417796 14.10761193 -7.55078125 14.09765625 C-6.70322266 14.09443359 -5.85566406 14.09121094 -4.98242188 14.08789062 C-3.66081055 14.07532227 -3.66081055 14.07532227 -2.3125 14.0625 C-1.41982422 14.05798828 -0.52714844 14.05347656 0.39257812 14.04882812 C2.59508073 14.03705004 4.79754885 14.01911481 7 14 C7 9.71 7 5.42 7 1 C4.69 1 2.38 1 0 1 C0 0.67 0 0.34 0 0 Z " fill="#C4C4C4" transform="translate(220,80)"/>
<path d="M0 0 C3.17282395 1.66019858 5.37590133 3.75180266 7 7 C7.12207871 8.78859511 7.17548448 10.58228381 7.1875 12.375 C7.20167969 13.33148438 7.21585938 14.28796875 7.23046875 15.2734375 C6.99342895 18.07773881 6.52023335 19.65434786 5 22 C-0.14511919 25.65574258 -4.70262947 26.66288111 -11 26 C-14.82458486 22.94033211 -17.62012673 19.75778125 -18.30078125 14.81640625 C-18.32558252 10.04629517 -18.15607268 6.83237396 -15 3 C-10.49271409 -1.07045644 -5.80663017 -0.92301925 0 0 Z " fill="#E4E4E4" transform="translate(169,54)"/>
<path d="M0 0 C1.3125 2.3125 1.3125 2.3125 1.0625 4.875 C0.815 5.679375 0.5675 6.48375 0.3125 7.3125 C0.3125 10.41801666 0.8518715 11.66511084 2.3125 14.3125 C3.3025 14.3125 4.2925 14.3125 5.3125 14.3125 C5.6425 15.3025 5.9725 16.2925 6.3125 17.3125 C6.9725 17.3125 7.6325 17.3125 8.3125 17.3125 C8.3125 17.9725 8.3125 18.6325 8.3125 19.3125 C7.6525 19.3125 6.9925 19.3125 6.3125 19.3125 C5.9825 19.9725 5.6525 20.6325 5.3125 21.3125 C4.6525 21.3125 3.9925 21.3125 3.3125 21.3125 C2.9825 21.6425 2.6525 21.9725 2.3125 22.3125 C-0.02047433 22.35342937 -2.35455225 22.35491723 -4.6875 22.3125 C-6.78100689 18.9105513 -6.86692163 16.25977588 -6.6875 12.3125 C-8.0075 12.3125 -9.3275 12.3125 -10.6875 12.3125 C-10.6875 14.6225 -10.6875 16.9325 -10.6875 19.3125 C-9.6975 19.3125 -8.7075 19.3125 -7.6875 19.3125 C-7.6875 20.6325 -7.6875 21.9525 -7.6875 23.3125 C-14.1225 23.8075 -14.1225 23.8075 -20.6875 24.3125 C-20.6875 22.9925 -20.6875 21.6725 -20.6875 20.3125 C-20.0275 20.3125 -19.3675 20.3125 -18.6875 20.3125 C-18.8525 19.178125 -19.0175 18.04375 -19.1875 16.875 C-19.76326084 12.34189706 -19.78255266 7.87502762 -19.6875 3.3125 C-20.6775 3.3125 -21.6675 3.3125 -22.6875 3.3125 C-22.6875 1.9925 -22.6875 0.6725 -22.6875 -0.6875 C-4.53873857 -2.84990562 -4.53873857 -2.84990562 0 0 Z " fill="#DADADA" transform="translate(199.6875,52.6875)"/>
<path d="M0 0 C2.5625 0.1875 2.5625 0.1875 4.5625 2.1875 C5.8 2.6825 5.8 2.6825 7.0625 3.1875 C9.5625 4.1875 9.5625 4.1875 11.5625 6.1875 C11.1875 8.5625 11.1875 8.5625 10.5625 11.1875 C10.5625 13.56286547 10.5925613 15.93903255 10.6875 18.3125 C10.5625 21.1875 10.5625 21.1875 8.5625 23.1875 C6.90433216 23.87503301 5.23790664 24.54311283 3.5625 25.1875 C3.2325 25.5175 2.9025 25.8475 2.5625 26.1875 C0.89632885 26.22813832 -0.77138095 26.230221 -2.4375 26.1875 C-2.7675 25.1975 -3.0975 24.2075 -3.4375 23.1875 C-4.200625 23.249375 -4.96375 23.31125 -5.75 23.375 C-8.4375 23.1875 -8.4375 23.1875 -10.3125 22 C-11.4375 20.1875 -11.4375 20.1875 -11.125 17.75 C-10.898125 16.904375 -10.67125 16.05875 -10.4375 15.1875 C-10.26474762 11.38920803 -10.26474762 11.38920803 -11.125 8.625 C-11.4375 6.1875 -11.4375 6.1875 -10.3125 4.5 C-8.12728538 2.97034977 -5.93387156 2.10721584 -3.4375 1.1875 C-2.4375 0.1875 -2.4375 0.1875 0 0 Z " fill="#D4D4D4" transform="translate(218.4375,190.8125)"/>
<path d="M0 0 C-0.0928125 1.546875 -0.0928125 1.546875 -0.1875 3.125 C-0.2167256 8.55122039 1.11583893 13.66736579 2.34375 18.92578125 C3 22 3 22 3 25 C-0.1814092 26.23345416 -2.63888609 26.74186748 -6 26 C-9.62231047 22.37225062 -12.30251085 18.34276623 -15 14 C-14.67 17.63 -14.34 21.26 -14 25 C-13.01 25 -12.02 25 -11 25 C-11 26.32 -11 27.64 -11 29 C-13.97 29.33 -16.94 29.66 -20 30 C-20 28.68 -20 27.36 -20 26 C-19.34 26 -18.68 26 -18 26 C-18.2165625 25.09636719 -18.433125 24.19273438 -18.65625 23.26171875 C-18.9346875 22.08222656 -19.213125 20.90273437 -19.5 19.6875 C-19.91765625 17.92986328 -19.91765625 17.92986328 -20.34375 16.13671875 C-21 13 -21 13 -21 10 C-21.99 10 -22.98 10 -24 10 C-24 8.68 -24 7.36 -24 6 C-17.03719912 3.40919037 -17.03719912 3.40919037 -13 4 C-10.76171875 6.1875 -10.76171875 6.1875 -8.6875 9 C-7.99011719 9.928125 -7.29273437 10.85625 -6.57421875 11.8125 C-6.05472656 12.534375 -5.53523438 13.25625 -5 14 C-5 11.36 -5 8.72 -5 6 C-6.32 6 -7.64 6 -9 6 C-9 4.68 -9 3.36 -9 2 C-3.375 0 -3.375 0 0 0 Z " fill="#E5E5E5" transform="translate(122,63)"/>
<path d="M0 0 C2.76276177 0.52268466 5.3260876 1.10869587 8 2 C8.83211276 7.03854106 9.1078534 11.8125662 9.0625 16.9375 C9.05798828 17.62134766 9.05347656 18.30519531 9.04882812 19.00976562 C9.0371956 20.67321604 9.01926694 22.3366205 9 24 C9.66 24 10.32 24 11 24 C11 25.32 11 26.64 11 28 C9.39536551 27.68991116 7.79130769 27.37683713 6.1875 27.0625 C4.84751953 26.80146484 4.84751953 26.80146484 3.48046875 26.53515625 C1 26 1 26 -2 25 C-2 23.68 -2 22.36 -2 21 C-1.01 21 -0.02 21 1 21 C1 19.68 1 18.36 1 17 C-0.98 17 -2.96 17 -5 17 C-5.33 17.99 -5.66 18.98 -6 20 C-5.34 20 -4.68 20 -4 20 C-4 20.99 -4 21.98 -4 23 C-9.50808397 22.40984815 -14.64878069 21.43336231 -20 20 C-20 19.67 -20 19.34 -20 19 C-18.35 19 -16.7 19 -15 19 C-15 18.34 -15 17.68 -15 17 C-15.66 17 -16.32 17 -17 17 C-16.67 16.34 -16.34 15.68 -16 15 C-13.03 15.495 -13.03 15.495 -10 16 C-9.52949219 15.18015625 -9.05898438 14.3603125 -8.57421875 13.515625 C-7.95160156 12.43796875 -7.32898438 11.3603125 -6.6875 10.25 C-6.07261719 9.18265625 -5.45773437 8.1153125 -4.82421875 7.015625 C-3.32904649 4.54394837 -1.78623484 2.26439616 0 0 Z " fill="#E5E5E5" transform="translate(341,71)"/>
<path d="M0 0 C1.47906892 -0.02689216 2.95827483 -0.04634621 4.4375 -0.0625 C5.26121094 -0.07410156 6.08492187 -0.08570313 6.93359375 -0.09765625 C9 0 9 0 10 1 C10.37834104 3.01289258 10.70220884 5.0361242 11 7.0625 C11.17273438 8.23296875 11.34546875 9.4034375 11.5234375 10.609375 C12.05659059 14.40262815 12.55244257 18.19576186 13 22 C13.66 22 14.32 22 15 22 C15 22.99 15 23.98 15 25 C11.04 25 7.08 25 3 25 C2.67 23.35 2.34 21.7 2 20 C2.99 20 3.98 20 5 20 C4.67 19.01 4.34 18.02 4 17 C2.02 16.67 0.04 16.34 -2 16 C-2 17.32 -2 18.64 -2 20 C-1.34 20 -0.68 20 0 20 C0 20.99 0 21.98 0 23 C-3.3 23 -6.6 23 -10 23 C-10 21.68 -10 20.36 -10 19 C-9.01 18.34 -8.02 17.68 -7 17 C-5.61097697 14.30572062 -5.61097697 14.30572062 -4.4375 11.1875 C-4.02371094 10.14980469 -3.60992187 9.11210938 -3.18359375 8.04296875 C-2.79300781 7.03878906 -2.40242187 6.03460938 -2 5 C-1.33450036 3.332867 -0.66825923 1.66602876 0 0 Z " fill="#ECECEC" transform="translate(249,52)"/>
<path d="M0 0 C0 0.33 0 0.66 0 1 C2.64 1.33 5.28 1.66 8 2 C8 2.33 8 2.66 8 3 C6.75734375 3.06316406 5.5146875 3.12632813 4.234375 3.19140625 C-25.28556959 5.05088635 -56.90576954 10.85664328 -84 23 C-85.74647669 23.73756572 -87.49610899 24.46774284 -89.25 25.1875 C-90.08015625 25.53167969 -90.9103125 25.87585938 -91.765625 26.23046875 C-94 27 -94 27 -97 27 C-97 25.68 -97 24.36 -97 23 C-94.75267898 22.15875684 -92.50261215 21.32685168 -90.25 20.5 C-89.61578125 20.26152344 -88.9815625 20.02304688 -88.328125 19.77734375 C-84.96713393 18.55198242 -82.63128413 18 -79 18 C-79 17.34 -79 16.68 -79 16 C-73.3125 14.375 -73.3125 14.375 -71.453125 13.84594727 C-67.59330071 12.74644497 -63.73818121 11.63237396 -59.88671875 10.50390625 C-34.24280198 3.0221864 -34.24280198 3.0221864 -21.01171875 2.2109375 C-19.00396592 2.2138034 -19.00396592 2.2138034 -18 1 C-12.03648279 -0.07822521 -6.03869603 -0.09585232 0 0 Z " fill="#C9C9C9" transform="translate(186,89)"/>
<path d="M0 0 C1 1 1 1 1.09765625 3.06640625 C1.08605469 3.89011719 1.07445312 4.71382812 1.0625 5.5625 C1.05347656 6.38878906 1.04445312 7.21507813 1.03515625 8.06640625 C1.02355469 8.70449219 1.01195312 9.34257813 1 10 C0.01 10 -0.98 10 -2 10 C-2.185625 9.360625 -2.37125 8.72125 -2.5625 8.0625 C-3.94246056 5.57873787 -3.94246056 5.57873787 -7.625 5.25 C-8.73875 5.1675 -9.8525 5.085 -11 5 C-11 7.31 -11 9.62 -11 12 C-10.34 11.67 -9.68 11.34 -9 11 C-8.34786708 8.97536745 -8.34786708 8.97536745 -8 7 C-6.68 7 -5.36 7 -4 7 C-3.67 10.96 -3.34 14.92 -3 19 C-3.99 19 -4.98 19 -6 19 C-6.33 18.01 -6.66 17.02 -7 16 C-7.66 15.67 -8.32 15.34 -9 15 C-8.67 16.98 -8.34 18.96 -8 21 C-7.01 21.33 -6.02 21.66 -5 22 C-5 23.32 -5 24.64 -5 26 C-6.41538717 26.33872513 -7.83237963 26.67074624 -9.25 27 C-10.03890625 27.185625 -10.8278125 27.37125 -11.640625 27.5625 C-14 28 -14 28 -18 28 C-18 26.68 -18 25.36 -18 24 C-17.34 24 -16.68 24 -16 24 C-16.66 18.72 -17.32 13.44 -18 8 C-19.32 8 -20.64 8 -22 8 C-22 6.68 -22 5.36 -22 4 C-19.64856824 3.32210976 -17.29461376 2.65759253 -14.9375 2 C-13.95233398 1.71382812 -13.95233398 1.71382812 -12.94726562 1.421875 C-8.54173225 0.20655545 -4.61293253 -0.28206466 0 0 Z " fill="#ECECEC" transform="translate(147,58)"/>
<path d="M0 0 C8.01701946 -0.41467342 15.21930149 1.14060121 23 3 C23 5.97 23 8.94 23 12 C21.68 12 20.36 12 19 12 C18.67 10.35 18.34 8.7 18 7 C17.01 6.67 16.02 6.34 15 6 C15.01160156 6.65226562 15.02320313 7.30453125 15.03515625 7.9765625 C15.08470994 12.7761914 14.99413751 17.27784685 14 22 C14.99 22 15.98 22 17 22 C17 23.32 17 24.64 17 26 C14.87465341 25.85930804 12.74972471 25.71229079 10.625 25.5625 C9.44164062 25.48128906 8.25828125 25.40007812 7.0390625 25.31640625 C4 25 4 25 2 24 C2 22.68 2 21.36 2 20 C3.32 20 4.64 20 6 20 C6.66 14.72 7.32 9.44 8 4 C7.01 4.33 6.02 4.66 5 5 C4.26676204 7.01508358 4.26676204 7.01508358 4 9 C2.68 9 1.36 9 0 9 C0 6.03 0 3.06 0 0 Z " fill="#E8E8E8" transform="translate(264,54)"/>
<path d="M0 0 C4.95 0 9.9 0 15 0 C15 2.64 15 5.28 15 8 C18.96 8 22.92 8 27 8 C27 8.66 27 9.32 27 10 C28.65 10 30.3 10 32 10 C32 10.33 32 10.66 32 11 C26.39 11 20.78 11 15 11 C15 12.65 15 14.3 15 16 C13 18 13 18 10.01904297 18.22705078 C8.77268066 18.21657715 7.52631836 18.20610352 6.2421875 18.1953125 C5.57913605 18.1924826 4.91608459 18.18965271 4.23294067 18.18673706 C2.11344417 18.17553435 -0.00563104 18.15043051 -2.125 18.125 C-3.56119182 18.11497028 -4.99739025 18.10584441 -6.43359375 18.09765625 C-9.95586628 18.075595 -13.47789203 18.04106494 -17 18 C-16.34 16.35 -15.68 14.7 -15 13 C-14.01 13.33 -13.02 13.66 -12 14 C-10.51876453 14.0806622 -9.03417796 14.10761193 -7.55078125 14.09765625 C-6.70322266 14.09443359 -5.85566406 14.09121094 -4.98242188 14.08789062 C-3.66081055 14.07532227 -3.66081055 14.07532227 -2.3125 14.0625 C-1.41982422 14.05798828 -0.52714844 14.05347656 0.39257812 14.04882812 C2.59508073 14.03705004 4.79754885 14.01911481 7 14 C7 9.71 7 5.42 7 1 C4.69 1 2.38 1 0 1 C0 0.67 0 0.34 0 0 Z " fill="#EFEFEF" transform="translate(220,80)"/>
<path d="M0 0 C2.20665404 3.30998105 2.78262095 5.82021436 3.625 9.6875 C4.01558594 11.45673828 4.01558594 11.45673828 4.4140625 13.26171875 C4.60742188 14.16535156 4.80078125 15.06898437 5 16 C6.65 16 8.3 16 10 16 C10.19335938 15.15695313 10.38671875 14.31390625 10.5859375 13.4453125 C10.84632813 12.34960938 11.10671875 11.25390625 11.375 10.125 C11.63023437 9.03445312 11.88546875 7.94390625 12.1484375 6.8203125 C13 4 13 4 15 2 C15 5.63 15 9.26 15 13 C14.34 13 13.68 13 13 13 C13 14.32 13 15.64 13 17 C16.96 17 20.92 17 25 17 C25 17.33 25 17.66 25 18 C22.94921875 18.22786458 20.8984375 18.45572917 18.84765625 18.68359375 C16.98859771 18.81886614 16.98859771 18.81886614 16 20 C17.32 20.66 18.64 21.32 20 22 C4.655 22.495 4.655 22.495 -11 23 C-11.66 21.68 -12.32 20.36 -13 19 C-15.05000871 18.19471111 -15.05000871 18.19471111 -17 18 C-15.329375 17.5359375 -15.329375 17.5359375 -13.625 17.0625 C-10.2054845 16.17673517 -10.2054845 16.17673517 -8 15 C-8 15.66 -8 16.32 -8 17 C-4.7 17 -1.4 17 2 17 C2 16.01 2 15.02 2 14 C1.34 14 0.68 14 0 14 C0 9.38 0 4.76 0 0 Z " fill="#1D1D1D" transform="translate(213,57)"/>
<path d="M0 0 C1.41702513 0.14230808 2.8336096 0.28900746 4.25 0.4375 C5.43335938 0.55931641 5.43335938 0.55931641 6.640625 0.68359375 C8.82364639 0.97634993 10.8773182 1.42064419 13 2 C13 3.32 13 4.64 13 6 C12.01 6 11.02 6 10 6 C9.34 11.28 8.68 16.56 8 22 C8.66 22 9.32 22 10 22 C9.67 23.32 9.34 24.64 9 26 C0.42857143 25 0.42857143 25 -3 24 C-3 22.68 -3 21.36 -3 20 C-2.01 20 -1.02 20 0 20 C0.19522373 17.41703983 0.38144403 14.83395921 0.5625 12.25 C0.61857422 11.52039063 0.67464844 10.79078125 0.73242188 10.0390625 C0.97709908 6.45046349 0.99666259 3.44972775 0 0 Z " fill="#E3E3E3" transform="translate(289,58)"/>
<path d="M0 0 C0 0.99 0 1.98 0 3 C-0.66 3 -1.32 3 -2 3 C-1.7834375 3.80824219 -1.566875 4.61648437 -1.34375 5.44921875 C-1.0653125 6.51785156 -0.786875 7.58648437 -0.5 8.6875 C-0.2215625 9.74324219 0.056875 10.79898438 0.34375 11.88671875 C0.9391715 14.71142672 1.12786492 17.12836708 1 20 C2.32 20 3.64 20 5 20 C5 20.99 5 21.98 5 23 C3.58603098 23.50757862 2.16868271 24.00574925 0.75 24.5 C-0.03890625 24.7784375 -0.8278125 25.056875 -1.640625 25.34375 C-4 26 -4 26 -8 26 C-8 24.68 -8 23.36 -8 22 C-7.34 22 -6.68 22 -6 22 C-6.4640625 20.824375 -6.4640625 20.824375 -6.9375 19.625 C-8.26335807 15.10148422 -8.64811085 10.68568186 -9 6 C-9.99 6 -10.98 6 -12 6 C-12 5.01 -12 4.02 -12 3 C-4.71428571 -0.42857143 -4.71428571 -0.42857143 0 0 Z " fill="#E8E8E8" transform="translate(96,71)"/>
<path d="M0 0 C3.63 0 7.26 0 11 0 C10.4140625 2.27864583 9.828125 4.55729167 9.2421875 6.8359375 C9.16226563 7.55007812 9.08234375 8.26421875 9 9 C9.66 9.66 10.32 10.32 11 11 C11.26991906 13.68839385 11.08737357 16.29141936 11 19 C11.99 19 12.98 19 14 19 C14 20.32 14 21.64 14 23 C7.565 23.495 7.565 23.495 1 24 C1 22.68 1 21.36 1 20 C1.66 20 2.32 20 3 20 C2.835 18.88625 2.67 17.7725 2.5 16.625 C1.87905495 11.74489662 1.90942126 6.91138052 2 2 C1.34 2 0.68 2 0 2 C0 1.34 0 0.68 0 0 Z " fill="#E6E6E6" transform="translate(178,53)"/>
<path d="M0 0 C4.67461851 -0.32613618 7.16674383 0.29417212 11 3 C11 2.01 11 1.02 11 0 C13.31 0 15.62 0 18 0 C19.03159626 3.09478879 18.97482862 4.52631393 18.5625 7.6875 C18.46066406 8.49574219 18.35882813 9.30398437 18.25390625 10.13671875 C18.17011719 10.75160156 18.08632812 11.36648437 18 12 C11.61773055 12.82351864 5.43255401 13.12086218 -1 13 C-0.49396008 10.83125748 -0.00016187 9.00032373 1 7 C1.66 7 2.32 7 3 7 C3.33 5.02 3.66 3.04 4 1 C3.01 1.495 3.01 1.495 2 2 C1.67 2.99 1.34 3.98 1 5 C0.34 5 -0.32 5 -1 5 C-0.67 3.35 -0.34 1.7 0 0 Z " fill="#D8D8D8" transform="translate(209,82)"/>
<path d="M0 0 C5.81918568 0.4594094 11.49364815 2.23374243 16 6 C17.10337972 8.82634959 17.48138958 11.26338183 17.71875 14.28125 C18.01732042 17.16743069 18.81619042 19.365069 20 22 C20.66 22 21.32 22 22 22 C21.34 23.98 20.68 25.96 20 28 C19.01 27.67 18.02 27.34 17 27 C16.31536609 25.34063306 15.65197868 23.67246705 15 22 C13.64038864 20.20531301 12.21774983 18.45738246 10.75 16.75 C0 3.91599354 0 3.91599354 0 0 Z " fill="#EEEEEE" transform="translate(161,230)"/>
<path d="M0 0 C1.6254308 0.14095064 3.25034051 0.28792087 4.875 0.4375 C5.77992188 0.51871094 6.68484375 0.59992188 7.6171875 0.68359375 C10 1 10 1 12 2 C12 3.32 12 4.64 12 6 C9.03 6.66 6.06 7.32 3 8 C3.2165625 8.66386719 3.433125 9.32773438 3.65625 10.01171875 C4.07390625 11.33623047 4.07390625 11.33623047 4.5 12.6875 C4.7784375 13.55761719 5.056875 14.42773438 5.34375 15.32421875 C5.99850805 17.99391677 6.11831495 20.26396684 6 23 C6.66 23 7.32 23 8 23 C8 23.66 8 24.32 8 25 C6.56208484 24.85831863 5.1246763 24.71148957 3.6875 24.5625 C2.88699219 24.48128906 2.08648437 24.40007812 1.26171875 24.31640625 C-1 24 -1 24 -4 23 C-4 21.68 -4 20.36 -4 19 C-3.34 19 -2.68 19 -2 19 C-2 16.36 -2 13.72 -2 11 C-2.66 10.67 -3.32 10.34 -4 10 C-2.68 9.34 -1.36 8.68 0 8 C0 7.01 0 6.02 0 5 C0.66 5 1.32 5 2 5 C2 4.34 2 3.68 2 3 C1.34 3 0.68 3 0 3 C0 2.01 0 1.02 0 0 Z " fill="#E9E9E9" transform="translate(318,65)"/>
<path d="M0 0 C5.24142864 -0.54958669 8.76939497 -0.91064772 13.125 2.3125 C16.06598231 6.66681656 15.72085167 11.97680207 15 17 C13.74176204 20.31238458 13.07875893 20.94749404 10 23 C7.3125 23.125 7.3125 23.125 5 23 C5 22.34 5 21.68 5 21 C5.66 21 6.32 21 7 21 C6.69035138 18.58293696 6.37738885 16.16638113 6.0625 13.75 C5.97548828 13.06808594 5.88847656 12.38617188 5.79882812 11.68359375 C5.3684062 8.39963389 4.91205869 5.18809706 4 2 C2.68 2 1.36 2 0 2 C0 1.34 0 0.68 0 0 Z " fill="#EFEFEF" transform="translate(161,55)"/>
<path d="M0 0 C0.50866669 2.35258344 1.0070625 4.70661404 1.5 7.0625 C1.64308594 7.71927734 1.78617187 8.37605469 1.93359375 9.05273438 C2.83952455 13.43139988 3.14031146 17.50418704 3 22 C2.34 22 1.68 22 1 22 C-0.32 18.37 -1.64 14.74 -3 11 C-8.06324896 11.38948069 -11.56480768 13.22668522 -15.8515625 15.74609375 C-17.86544509 16.92146886 -19.90382029 17.98036507 -22 19 C-20.40927252 15.07867179 -17.71490199 12.4172092 -14.75 9.5 C-14.28464844 9.02691406 -13.81929688 8.55382812 -13.33984375 8.06640625 C-5.22874827 0 -5.22874827 0 0 0 Z " fill="#E5E5E5" transform="translate(298,153)"/>
<path d="M0 0 C2.0625 0.4375 2.0625 0.4375 4 1 C3.67 2.98 3.34 4.96 3 7 C3.66 7.33 4.32 7.66 5 8 C5.33 6.68 5.66 5.36 6 4 C7.32 4 8.64 4 10 4 C9.49396008 6.16874252 9.00016187 7.99967627 8 10 C7.34 10 6.68 10 6 10 C6.99 11.1446875 6.99 11.1446875 8 12.3125 C10 15 10 15 10 18 C8.68 18 7.36 18 6 18 C6 16.68 6 15.36 6 14 C4.68 14.33 3.36 14.66 2 15 C2.33 16.98 2.66 18.96 3 21 C2.01 21 1.02 21 0 21 C0.33 18.69 0.66 16.38 1 14 C-0.32 14 -1.64 14 -3 14 C-3 15.32 -3 16.64 -3 18 C-4.32 18 -5.64 18 -7 18 C-7 16.68 -7 15.36 -7 14 C-6.01 13.34 -5.02 12.68 -4 12 C-4.33 11.01 -4.66 10.02 -5 9 C-5.66 8.67 -6.32 8.34 -7 8 C-7 6.68 -7 5.36 -7 4 C-5.68 4 -4.36 4 -3 4 C-3 5.32 -3 6.64 -3 8 C-2.34 7.67 -1.68 7.34 -1 7 C-1.020625 6.030625 -1.04125 5.06125 -1.0625 4.0625 C-1 1 -1 1 0 0 Z " fill="#090909" transform="translate(217,193)"/>
<path d="M0 0 C3.3 0 6.6 0 10 0 C10 0.66 10 1.32 10 2 C9.01 2 8.02 2 7 2 C7 7.61 7 13.22 7 19 C7.99 19 8.98 19 10 19 C10 20.32 10 21.64 10 23 C6.04 23 2.08 23 -2 23 C-2 21.68 -2 20.36 -2 19 C-1.01 19 -0.02 19 1 19 C0.67 12.73 0.34 6.46 0 0 Z " fill="#F0F0F0" transform="translate(228,51)"/>
<path d="M0 0 C1.13985352 0.31324219 1.13985352 0.31324219 2.30273438 0.6328125 C9.61177961 2.68009417 16.5685265 5.37185205 23.5625 8.3125 C24.6040625 8.74949219 25.645625 9.18648437 26.71875 9.63671875 C27.4921875 9.96285156 28.265625 10.28898437 29.0625 10.625 C29.0625 11.615 29.0625 12.605 29.0625 13.625 C24.5847423 13.16808595 20.99809378 12.22882196 16.89428711 10.41186523 C5.13104393 5.35882875 -7.67991541 2.24140884 -19.9375 -1.375 C-13.56661897 -4.96342574 -6.63269509 -1.88066291 0 0 Z " fill="#D1D1D1" transform="translate(317.9375,102.375)"/>
<path d="M0 0 C-1.5558261 4.6323184 -4.07618701 8.16896731 -6.9375 12.0625 C-7.38029297 12.67416016 -7.82308594 13.28582031 -8.27929688 13.91601562 C-9.13376757 15.09393722 -9.99340205 16.2681354 -10.85888672 17.43798828 C-11.81488834 18.74661009 -12.72745163 20.08681622 -13.62890625 21.43359375 C-14.30759766 22.20896484 -14.30759766 22.20896484 -15 23 C-15.99 23 -16.98 23 -18 23 C-17.86722656 22.45472656 -17.73445313 21.90945312 -17.59765625 21.34765625 C-17.42105469 20.59355469 -17.24445313 19.83945313 -17.0625 19.0625 C-16.8665625 18.24394531 -16.670625 17.42539063 -16.46875 16.58203125 C-16.00925365 14.05097219 -16.02804817 11.81235502 -16.0625 9.25 C-15.8671875 7.01953125 -15.8671875 7.01953125 -15 5 C-10.32434317 1.69000531 -5.71566027 0 0 0 Z " fill="#E9E9E9" transform="translate(275,231)"/>
<path d="M0 0 C0 0.33 0 0.66 0 1 C2.64 1.33 5.28 1.66 8 2 C8 2.33 8 2.66 8 3 C7.43418213 3.03440186 6.86836426 3.06880371 6.28540039 3.10424805 C-8.69450363 4.07190334 -23.07908788 6.31681221 -37.72949219 9.57275391 C-40 10 -40 10 -43 10 C-43 9.34 -43 8.68 -43 8 C-45.64 8.33 -48.28 8.66 -51 9 C-48.79967599 6.79967599 -47.98581422 6.58647206 -45.03515625 5.96484375 C-44.23964355 5.79573486 -43.44413086 5.62662598 -42.62451172 5.45239258 C-41.77904785 5.28247803 -40.93358398 5.11256348 -40.0625 4.9375 C-38.77883545 4.67199341 -38.77883545 4.67199341 -37.46923828 4.40112305 C-31.93693041 3.29079126 -26.47800129 2.47958468 -20.8359375 2.17578125 C-18.98272749 2.19489227 -18.98272749 2.19489227 -18 1 C-12.03648279 -0.07822521 -6.03869603 -0.09585232 0 0 Z " fill="#CACACA" transform="translate(186,89)"/>
<path d="M0 0 C8.71683635 1.41948482 16.17295493 10.87997501 22 17 C21.67 17.66 21.34 18.32 21 19 C20.360625 18.4225 19.72125 17.845 19.0625 17.25 C14.09182244 13.59807363 9.22598123 11 3 11 C1.68 13.64 0.36 16.28 -1 19 C-1.33 19 -1.66 19 -2 19 C-1.85913398 16.39547729 -1.71251536 13.79149803 -1.5625 11.1875 C-1.50352539 10.08051758 -1.50352539 10.08051758 -1.44335938 8.95117188 C-1.25618965 5.76928658 -1.01279207 3.03837622 0 0 Z " fill="#E3E3E3" transform="translate(139,153)"/>
<path d="M0 0 C2.45862401 -0.05383848 4.9160755 -0.09359038 7.375 -0.125 C8.42300781 -0.15013672 8.42300781 -0.15013672 9.4921875 -0.17578125 C11.32897486 -0.19344267 13.16601963 -0.10303261 15 0 C17 2 17 2 17 5 C10.07 4.505 10.07 4.505 3 4 C3 4.66 3 5.32 3 6 C6.96 6 10.92 6 15 6 C14.67 6.99 14.34 7.98 14 9 C12.35 9 10.7 9 9 9 C9 9.66 9 10.32 9 11 C10.98 11.66 12.96 12.32 15 13 C15 13.66 15 14.32 15 15 C8.57575627 14.73778597 5.42054098 12.58045719 1 8 C-0.9375 5.625 -0.9375 5.625 -2 4 C-1.34 2.68 -0.68 1.36 0 0 Z " fill="#212121" transform="translate(211,271)"/>
<path d="M0 0 C0.78375 0.639375 1.5675 1.27875 2.375 1.9375 C4.79539281 3.98142313 4.79539281 3.98142313 7 5 C7 5.66 7 6.32 7 7 C7.886875 7.268125 8.77375 7.53625 9.6875 7.8125 C12.78051006 8.92131493 15.20489219 10.30822422 18 12 C21.80621715 13.26873905 25.77510966 13.3333239 29.75 13.5625 C30.44738281 13.60568359 31.14476562 13.64886719 31.86328125 13.69335938 C33.57531922 13.79889596 35.28763561 13.8998991 37 14 C37 14.33 37 14.66 37 15 C31.72 15 26.44 15 21 15 C21 17.31 21 19.62 21 22 C19.35 22.66 17.7 23.32 16 24 C17.32 21.69 18.64 19.38 20 17 C18.7934375 16.9071875 18.7934375 16.9071875 17.5625 16.8125 C9.16279373 14.89677752 2.54370109 9.36800066 -4 4 C-3.01 3.67 -2.02 3.34 -1 3 C-0.67 2.01 -0.34 1.02 0 0 Z " fill="#D8D8D8" transform="translate(251,263)"/>
<path d="M0 0 C0.66 0.66 1.32 1.32 2 2 C4.58354218 2.16687448 4.58354218 2.16687448 7 2 C8.38529821 7.45461169 9.2396943 12.36718401 9 18 C8.34 18 7.68 18 7 18 C6.67 19.32 6.34 20.64 6 22 C4.68 21.67 3.36 21.34 2 21 C1.4638921 18.81619325 0.94679902 16.62771417 0.4375 14.4375 C0.14746094 13.21933594 -0.14257812 12.00117187 -0.44140625 10.74609375 C-1.02033181 6.86364894 -0.74517495 3.83444327 0 0 Z " fill="#0D0D0D" transform="translate(122,64)"/>
<path d="M0 0 C0.99 0 1.98 0 3 0 C3 1.65 3 3.3 3 5 C4.32 5 5.64 5 7 5 C7.33 3.35 7.66 1.7 8 0 C8.99 0 9.98 0 11 0 C11.22914982 5.38502081 11.23234397 10.99789592 9 16 C5.875 17.5625 5.875 17.5625 3 18 C3 17.34 3 16.68 3 16 C2.34 16 1.68 16 1 16 C-0.79074734 10.10106757 -1.08360869 6.06820868 0 0 Z " fill="#0B0B0B" transform="translate(261,58)"/>
<path d="M0 0 C1.47303666 2.81742383 2.6117379 5.63623109 3.6875 8.625 C5.9504595 14.38914212 9.32144386 19.06203671 13 24 C13.66 24.99 14.32 25.98 15 27 C12.69 27.66 10.38 28.32 8 29 C6.99515796 27.04414675 5.99626195 25.08523763 5 23.125 C4.443125 22.03445312 3.88625 20.94390625 3.3125 19.8203125 C2 17 2 17 2 15 C1.34 15 0.68 15 0 15 C-1.32 12.36 -2.64 9.72 -4 7 C-3.01 6.01 -2.02 5.02 -1 4 C-0.28552357 1.89667109 -0.28552357 1.89667109 0 0 Z " fill="#E9E9E9" transform="translate(197,195)"/>
<path d="M0 0 C0.99 0 1.98 0 3 0 C6.44419134 10.37357631 6.44419134 10.37357631 6 16 C5.34 16 4.68 16 4 16 C4 17.32 4 18.64 4 20 C4.66 20.33 5.32 20.66 6 21 C5.01 21 4.02 21 3 21 C3 20.01 3 19.02 3 18 C1.68 18 0.36 18 -1 18 C-4.44419134 6.47835991 -4.44419134 6.47835991 -4 1 C-2.68 1.33 -1.36 1.66 0 2 C0 1.34 0 0.68 0 0 Z " fill="#151515" transform="translate(98,73)"/>
<path d="M0 0 C1.3125 2.3125 1.3125 2.3125 1.125 4.875 C0.52083333 6.6875 -0.08333333 8.5 -0.6875 10.3125 C-1.3475 10.3125 -2.0075 10.3125 -2.6875 10.3125 C-2.6875 9.3225 -2.6875 8.3325 -2.6875 7.3125 C-3.3475 7.3125 -4.0075 7.3125 -4.6875 7.3125 C-5.3475 6.3225 -6.0075 5.3325 -6.6875 4.3125 C-7.0175 5.6325 -7.3475 6.9525 -7.6875 8.3125 C-9.0075 8.3125 -10.3275 8.3125 -11.6875 8.3125 C-11.6875 6.0025 -11.6875 3.6925 -11.6875 1.3125 C-14.9875 0.9825 -18.2875 0.6525 -21.6875 0.3125 C-21.6875 0.9725 -21.6875 1.6325 -21.6875 2.3125 C-21.0275 2.6425 -20.3675 2.9725 -19.6875 3.3125 C-20.6775 3.3125 -21.6675 3.3125 -22.6875 3.3125 C-22.6875 1.9925 -22.6875 0.6725 -22.6875 -0.6875 C-4.53873857 -2.84990562 -4.53873857 -2.84990562 0 0 Z " fill="#D9D9D9" transform="translate(199.6875,52.6875)"/>
<path d="M0 0 C0.33 0.66 0.66 1.32 1 2 C2.65 1.34 4.3 0.68 6 0 C6 2.31 6 4.62 6 7 C5.030625 7.433125 4.06125 7.86625 3.0625 8.3125 C-0.27731765 9.7014861 -0.27731765 9.7014861 -1 13 C-0.34 13 0.32 13 1 13 C1 13.99 1 14.98 1 16 C-4.50808397 15.40984815 -9.64878069 14.43336231 -15 13 C-15 12.67 -15 12.34 -15 12 C-13.35 12 -11.7 12 -10 12 C-10 11.34 -10 10.68 -10 10 C-10.66 10 -11.32 10 -12 10 C-11.67 9.34 -11.34 8.68 -11 8 C-8.03 8.495 -8.03 8.495 -5 9 C-3.35 6.03 -1.7 3.06 0 0 Z " fill="#D0D0D0" transform="translate(336,78)"/>
<path d="M0 0 C1.67542976 0.28604898 3.34385343 0.61781233 5 1 C7.10428384 6.12919186 7.21755666 10.5610835 7 16 C5.02 16.33 3.04 16.66 1 17 C-1.40503353 13.3924497 -1.2396541 11.65163611 -1.1875 7.375 C-1.18105469 6.20710938 -1.17460937 5.03921875 -1.16796875 3.8359375 C-1 1 -1 1 0 0 Z " fill="#0E0E0E" transform="translate(161,58)"/>
<path d="M0 0 C2.375 -0.125 2.375 -0.125 5 0 C5.66 0.66 6.32 1.32 7 2 C7.825 2.33 8.65 2.66 9.5 3 C12 4 12 4 14 6 C13.625 8.375 13.625 8.375 13 11 C13 12.32 13 13.64 13 15 C13 16.66666667 13 18.33333333 13 20 C12.67 19.01 12.34 18.02 12 17 C11.34 16.67 10.68 16.34 10 16 C8 15 8 15 7 12 C7.66 12 8.32 12 9 12 C9.66 10.02 10.32 8.04 11 6 C9.68 6 8.36 6 7 6 C7 7.65 7 9.3 7 11 C5.68 10.34 4.36 9.68 3 9 C3.33 7.02 3.66 5.04 4 3 C3.01 3 2.02 3 1 3 C1 4.98 1 6.96 1 9 C0.01 9.33 -0.98 9.66 -2 10 C-2.185625 9.071875 -2.185625 9.071875 -2.375 8.125 C-2.87197356 5.80879168 -2.87197356 5.80879168 -5 4 C-3.68 4 -2.36 4 -1 4 C-0.67 2.68 -0.34 1.36 0 0 Z " fill="#CFCFCF" transform="translate(216,191)"/>
<path d="M0 0 C1.875 0.9375 1.875 0.9375 3.25 2.6875 C4.08693757 5.70047525 3.24329407 7.20091187 1.875 9.9375 C0.76125 9.628125 0.76125 9.628125 -0.375 9.3125 C-3.44830841 8.89341249 -4.55286866 9.31800989 -7.125 10.9375 C-7.455 10.2775 -7.785 9.6175 -8.125 8.9375 C-9.115 8.9375 -10.105 8.9375 -11.125 8.9375 C-3.88362069 -0.11422414 -3.88362069 -0.11422414 0 0 Z M-13.125 8.9375 C-12.465 9.2675 -11.805 9.5975 -11.125 9.9375 C-15.875 14.8125 -15.875 14.8125 -18.125 15.9375 C-16.83200306 13.05312221 -15.46558637 11.06530579 -13.125 8.9375 Z " fill="#131313" transform="translate(298.125,145.0625)"/>
<path d="M0 0 C0.33 0.66 0.66 1.32 1 2 C1.99 2.33 2.98 2.66 4 3 C3.34 4.98 2.68 6.96 2 9 C1.34 9 0.68 9 0 9 C0 9.66 0 10.32 0 11 C-3.71599191 11.20086443 -4.77208445 11.1519437 -8 9 C-8 8.34 -8 7.68 -8 7 C-7.195625 6.87625 -6.39125 6.7525 -5.5625 6.625 C-4.716875 6.41875 -3.87125 6.2125 -3 6 C-2.67 5.34 -2.34 4.68 -2 4 C-5.96 4 -9.92 4 -14 4 C-14 3.34 -14 2.68 -14 2 C-12.04174127 1.97305149 -10.08337774 1.95362782 -8.125 1.9375 C-7.03445312 1.92589844 -5.94390625 1.91429687 -4.8203125 1.90234375 C-2 2 -2 2 0 3 C0 2.01 0 1.02 0 0 Z " fill="#BFBFBF" transform="translate(228,273)"/>
<path d="M0 0 C3.1398321 3.89544589 6.20524728 7.84281514 9.25 11.8125 C9.70890625 12.40998047 10.1678125 13.00746094 10.640625 13.62304688 C11.76086226 15.08168914 12.88049393 16.54079647 14 18 C9.9255567 18 7.88254967 15.90830751 4.8125 13.5 C4.25369141 13.07074219 3.69488281 12.64148438 3.11914062 12.19921875 C1.74114153 11.13921945 0.36990593 10.07043812 -1 9 C-0.34 7.68 0.32 6.36 1 5 C-0.32 5.33 -1.64 5.66 -3 6 C-3 3 -3 3 -1.5 1.3125 C-0.7575 0.6628125 -0.7575 0.6628125 0 0 Z " fill="#1C1C1C" transform="translate(165,237)"/>
<path d="M0 0 C1.32 0.66 2.64 1.32 4 2 C2.08571429 8.62637363 2.08571429 8.62637363 -1 11 C-1.66 11.28875 -2.32 11.5775 -3 11.875 C-5.69193015 13.38921071 -6.53159619 15.33017489 -8 18 C-10.35953094 20.35953094 -11.77895617 20.49141413 -15 21 C-14.154375 20.05125 -13.30875 19.1025 -12.4375 18.125 C-7.68386889 12.58097892 -3.11149656 6.63480883 0 0 Z " fill="#EEEEEE" transform="translate(236,205)"/>
<path d="M0 0 C0.54785156 0.27714844 1.09570312 0.55429687 1.66015625 0.83984375 C9.43728249 4.39329493 16.55567435 4.77481798 25 5 C25 5.33 25 5.66 25 6 C19.72 6 14.44 6 9 6 C9 8.31 9 10.62 9 13 C7.35 13.66 5.7 14.32 4 15 C5.32 12.69 6.64 10.38 8 8 C7.0925 7.896875 6.185 7.79375 5.25 7.6875 C1.98038425 6.99585051 0.46282263 6.17865079 -2 4 C-1.34 3.34 -0.68 2.68 0 2 C0 1.34 0 0.68 0 0 Z " fill="#CFCFCF" transform="translate(263,272)"/>
<path d="M0 0 C2.31 0 4.62 0 7 0 C8.03159626 3.09478879 7.97482862 4.52631393 7.5625 7.6875 C7.46066406 8.49574219 7.35882813 9.30398437 7.25390625 10.13671875 C7.17011719 10.75160156 7.08632812 11.36648437 7 12 C4.36 12 1.72 12 -1 12 C-0.67 11.01 -0.34 10.02 0 9 C1.32 9.66 2.64 10.32 4 11 C4 9.35 4 7.7 4 6 C2.35 6 0.7 6 -1 6 C-0.67 4.02 -0.34 2.04 0 0 Z " fill="#767676" transform="translate(220,82)"/>
<path d="M0 0 C1 1 1 1 1.09765625 3.06640625 C1.08605469 3.89011719 1.07445312 4.71382812 1.0625 5.5625 C1.05347656 6.38878906 1.04445312 7.21507813 1.03515625 8.06640625 C1.02355469 8.70449219 1.01195312 9.34257813 1 10 C0.01 10 -0.98 10 -2 10 C-2.226875 9.360625 -2.45375 8.72125 -2.6875 8.0625 C-3.85250896 5.72806339 -3.85250896 5.72806339 -6.625 5.25 C-7.40875 5.1675 -8.1925 5.085 -9 5 C-9 4.67 -9 4.34 -9 4 C-10.65 3.67 -12.3 3.34 -14 3 C-9.29136649 -0.13908901 -5.65129741 -0.21325651 0 0 Z " fill="#CECECE" transform="translate(147,58)"/>
<path d="M0 0 C1.32 0 2.64 0 4 0 C3.49396008 2.16874252 3.00016187 3.99967627 2 6 C1.34 6 0.68 6 0 6 C0.99 7.1446875 0.99 7.1446875 2 8.3125 C4 11 4 11 4 14 C2.68 14 1.36 14 0 14 C0 12.68 0 11.36 0 10 C-0.99 10.33 -1.98 10.66 -3 11 C-3 10.34 -3 9.68 -3 9 C-3.99 9 -4.98 9 -6 9 C-5.625 6.5625 -5.625 6.5625 -5 4 C-4.34 3.67 -3.68 3.34 -3 3 C-2.34 3.33 -1.68 3.66 -1 4 C-0.67 2.68 -0.34 1.36 0 0 Z " fill="#5E5E5E" transform="translate(223,197)"/>
<path d="M0 0 C0 1.32 0 2.64 0 4 C1.32 4 2.64 4 4 4 C4.33 3.01 4.66 2.02 5 1 C5.625 2.875 5.625 2.875 6 5 C3.77077045 7.22922955 1.90864722 7.88128953 -1 9 C-1.33 9.33 -1.66 9.66 -2 10 C-3.66617115 10.04063832 -5.33388095 10.042721 -7 10 C-7.33 9.34 -7.66 8.68 -8 8 C-7.0625 5.875 -7.0625 5.875 -6 4 C-5.34 4 -4.68 4 -4 4 C-4 3.01 -4 2.02 -4 1 C-2 0 -2 0 0 0 Z " fill="#C5C5C5" transform="translate(223,207)"/>
<path d="M0 0 C9.9 0 19.8 0 30 0 C30 0.33 30 0.66 30 1 C28.02 1.33 26.04 1.66 24 2 C24 2.33 24 2.66 24 3 C21.69 3 19.38 3 17 3 C17 3.99 17 4.98 17 6 C16.34 6 15.68 6 15 6 C14.34 6.66 13.68 7.32 13 8 C12.67 6.68 12.34 5.36 12 4 C10.35 3.67 8.7 3.34 7 3 C7 2.67 7 2.34 7 2 C4.69 1.67 2.38 1.34 0 1 C0 0.67 0 0.34 0 0 Z " fill="#E1E1E1" transform="translate(203,79)"/>
<path d="M0 0 C0.66 0.33 1.32 0.66 2 1 C2.25 3.25 2.25 3.25 2 6 C0.3125 8 0.3125 8 -2 10 C-2.825 10.845625 -3.65 11.69125 -4.5 12.5625 C-6.58196448 14.59241536 -8.62816886 16.33093365 -11 18 C-11.66 17.67 -12.32 17.34 -13 17 C-6.565 8.585 -6.565 8.585 0 0 Z " fill="#171717" transform="translate(271,238)"/>
<path d="M0 0 C4.29 0 8.58 0 13 0 C13 0.33 13 0.66 13 1 C9.7 1 6.4 1 3 1 C3.33 1.66 3.66 2.32 4 3 C4.07194869 5.88370333 4.09291708 8.74239664 4.0625 11.625 C4.05798828 12.42679688 4.05347656 13.22859375 4.04882812 14.0546875 C4.03703168 16.03649006 4.01909605 18.01825433 4 20 C3.67 20 3.34 20 3 20 C2.94392578 19.07767578 2.94392578 19.07767578 2.88671875 18.13671875 C2.82097656 17.32847656 2.75523437 16.52023438 2.6875 15.6875 C2.60048828 14.48673828 2.60048828 14.48673828 2.51171875 13.26171875 C1.91026671 10.60339257 1.01408774 9.76556278 -1 8 C-1.33 7.34 -1.66 6.68 -2 6 C-1.34 4.02 -0.68 2.04 0 0 Z " fill="#C5C5C5" transform="translate(225,50)"/>
<path d="M0 0 C1.99954746 -0.04254356 4.00041636 -0.04080783 6 0 C7 1 7 1 7.25 3.4375 C7.1675 4.283125 7.085 5.12875 7 6 C6.01 6.66 5.02 7.32 4 8 C4.99 8.33 5.98 8.66 7 9 C7 9.99 7 10.98 7 12 C4.36 12 1.72 12 -1 12 C-0.34 10.35 0.32 8.7 1 7 C1.66 7 2.32 7 3 7 C3.33 5.02 3.66 3.04 4 1 C3.01 1.495 3.01 1.495 2 2 C1.67 2.99 1.34 3.98 1 5 C0.34 5 -0.32 5 -1 5 C-0.67 3.35 -0.34 1.7 0 0 Z " fill="#1D1D1D" transform="translate(209,82)"/>
<path d="M0 0 C0 3.96 0 7.92 0 12 C-0.33 11.01 -0.66 10.02 -1 9 C-2.32 9.99 -3.64 10.98 -5 12 C-5 10.02 -5 8.04 -5 6 C-6.32 6 -7.64 6 -9 6 C-9 4.68 -9 3.36 -9 2 C-3.375 0 -3.375 0 0 0 Z " fill="#D6D6D6" transform="translate(122,63)"/>
<path d="M0 0 C0.99 0 1.98 0 3 0 C4.61328125 1.64453125 4.61328125 1.64453125 6.3125 3.8125 C9.2129574 7.29922007 11.70207495 9.32276096 16 11 C16 11.66 16 12.32 16 13 C9.13631001 12.46167137 6.21365266 10.45296646 1.6875 5.4375 C0 3 0 3 0 0 Z " fill="#202020" transform="translate(205,276)"/>
<path d="M0 0 C0.81210938 0.58394531 0.81210938 0.58394531 1.640625 1.1796875 C1.640625 2.1696875 1.640625 3.1596875 1.640625 4.1796875 C-1.26537761 5.43633728 -3.15542084 6.1796875 -6.359375 6.1796875 C-6.359375 6.8396875 -6.359375 7.4996875 -6.359375 8.1796875 C-9.32112623 7.56691138 -10.73996283 6.92596228 -13.359375 5.1796875 C-11.62102443 4.11869422 -9.86817696 3.08142267 -8.109375 2.0546875 C-7.13484375 1.47460938 -6.1603125 0.89453125 -5.15625 0.296875 C-2.359375 -0.8203125 -2.359375 -0.8203125 0 0 Z " fill="#E2E2E2" transform="translate(178.359375,270.8203125)"/>
<path d="M0 0 C1.58468677 0.45363171 3.16769924 0.91311452 4.75 1.375 C5.63171875 1.63023438 6.5134375 1.88546875 7.421875 2.1484375 C9.76080572 2.9209934 11.83442562 3.83625676 14 5 C14 5.99 14 6.98 14 8 C8.78510079 7.46786743 4.76822984 6.12867403 0 4 C-2.31913662 3.25569784 -4.64456777 2.62491059 -7 2 C-3.98968256 1.06576355 -3.13349732 0.95550089 0 2 C0 1.34 0 0.68 0 0 Z " fill="#BABABA" transform="translate(333,108)"/>
<path d="M0 0 C3.9252025 3.70090521 6.94580156 7.54959656 10 12 C9.360625 12.12375 8.72125 12.2475 8.0625 12.375 C7.381875 12.58125 6.70125 12.7875 6 13 C5.67 13.66 5.34 14.32 5 15 C5 14.01 5 13.02 5 12 C4.01 12 3.02 12 2 12 C1.34 8.04 0.68 4.08 0 0 Z " fill="#1A1A1A" transform="translate(106,76)"/>
<path d="M0 0 C1.6254308 0.14095064 3.25034051 0.28792087 4.875 0.4375 C5.77992188 0.51871094 6.68484375 0.59992188 7.6171875 0.68359375 C10 1 10 1 12 2 C12 3.32 12 4.64 12 6 C5.375 7.25 5.375 7.25 2 5 C2 4.34 2 3.68 2 3 C1.34 3 0.68 3 0 3 C0 2.01 0 1.02 0 0 Z " fill="#DDDDDD" transform="translate(318,65)"/>
<path d="M0 0 C7.53216715 0.44238385 14.6802723 1.13905228 22 3 C22 3.33 22 3.66 22 4 C12.59771406 4.1170409 3.37104106 3.88495497 -6 3 C-6 2.67 -6 2.34 -6 2 C-4.02 1.67 -2.04 1.34 0 1 C0 0.67 0 0.34 0 0 Z " fill="#D4D4D4" transform="translate(247,89)"/>
<path d="M0 0 C1.32 0 2.64 0 4 0 C4.33 3.96 4.66 7.92 5 12 C4.01 12 3.02 12 2 12 C1.67 11.01 1.34 10.02 1 9 C0.34 8.67 -0.32 8.34 -1 8 C-1 7.34 -1 6.68 -1 6 C-1.66 5.67 -2.32 5.34 -3 5 C-2.34 4.67 -1.68 4.34 -1 4 C-0.34786708 1.97536745 -0.34786708 1.97536745 0 0 Z " fill="#D5D5D5" transform="translate(139,65)"/>
<path d="M0 0 C0 0.66 0 1.32 0 2 C-2.18386418 2.67848208 -4.37230084 3.3422551 -6.5625 4 C-7.78066406 4.37125 -8.99882812 4.7425 -10.25390625 5.125 C-13.97923349 5.99514943 -17.19065949 6.15688404 -21 6 C-18 4 -18 4 -16 4 C-16 3.34 -16 2.68 -16 2 C-14.08404518 1.66259915 -12.16720278 1.33023588 -10.25 1 C-9.18265625 0.814375 -8.1153125 0.62875 -7.015625 0.4375 C-4 0 -4 0 0 0 Z " fill="#DEDEDE" transform="translate(143,97)"/>
<path d="M0 0 C-0.99 0.495 -0.99 0.495 -2 1 C-1.67 1.66 -1.34 2.32 -1 3 C-7.83824362 5.52686664 -12.79862595 6.27766314 -20 5 C-17.0051909 3.0034606 -14.88551663 2.31442567 -11.4375 1.4375 C-2.68560516 -0.80568155 -2.68560516 -0.80568155 0 0 Z " fill="#BDBDBD" transform="translate(127,101)"/>
<path d="M0 0 C2.17323993 2.09562422 4.11345222 4.15004971 5.9375 6.5625 C9.00492548 10.1876392 12.7777677 11.96707334 17 14 C16.01 14 15.02 14 14 14 C13.67 14.66 13.34 15.32 13 16 C13 15.34 13 14.68 13 14 C12.13955078 13.85691406 12.13955078 13.85691406 11.26171875 13.7109375 C8.4973692 12.84200552 6.97171477 11.54520226 4.8125 9.625 C4.11769531 9.01914062 3.42289063 8.41328125 2.70703125 7.7890625 C1 6 1 6 0 3 C-0.66 2.67 -1.32 2.34 -2 2 C-1.34 2 -0.68 2 0 2 C0 1.34 0 0.68 0 0 Z " fill="#B6B6B6" transform="translate(208,273)"/>
<path d="M0 0 C0 0.99 0 1.98 0 3 C-0.33 3.33 -0.66 3.66 -1 4 C-0.34 4.66 0.32 5.32 1 6 C0.34 6 -0.32 6 -1 6 C-1 6.66 -1 7.32 -1 8 C-3 9.625 -3 9.625 -5 11 C-5 10.01 -5 9.02 -5 8 C-7.97 10.475 -7.97 10.475 -11 13 C-11.33 12.01 -11.66 11.02 -12 10 C-8.05692685 6.59100304 -4.09529452 3.22659568 0 0 Z " fill="#E2E2E2" transform="translate(209,267)"/>
<path d="M0 0 C1.77706209 2.66559313 2.87548273 5.0280615 4 8 C4.66 8 5.32 8 6 8 C5.34 9.98 4.68 11.96 4 14 C3.01 13.67 2.02 13.34 1 13 C0.28752268 11.3523962 -0.37400383 9.68236471 -1 8 C-1.95824253 6.63634717 -2.94721175 5.29205831 -4 4 C-2.68 4.33 -1.36 4.66 0 5 C0 3.35 0 1.7 0 0 Z " fill="#D3D3D3" transform="translate(177,244)"/>
<path d="M0 0 C1.24523437 0.01804687 2.49046875 0.03609375 3.7734375 0.0546875 C5.18496094 0.08949219 5.18496094 0.08949219 6.625 0.125 C6.625 1.115 6.625 2.105 6.625 3.125 C0.025 3.125 -6.575 3.125 -13.375 3.125 C-13.375 2.795 -13.375 2.465 -13.375 2.125 C-8.75130977 0.31820413 -4.94971347 -0.09339082 0 0 Z " fill="#DDDDDD" transform="translate(194.375,87.875)"/>
<path d="M0 0 C3.3 0 6.6 0 10 0 C9.67 0.66 9.34 1.32 9 2 C7.35 2 5.7 2 4 2 C4 2.66 4 3.32 4 4 C5.98 4.66 7.96 5.32 10 6 C10 6.66 10 7.32 10 8 C3.375 7.25 3.375 7.25 0 5 C0 4.34 0 3.68 0 3 C0.66 3 1.32 3 2 3 C2 2.34 2 1.68 2 1 C1.34 0.67 0.68 0.34 0 0 Z " fill="#0F0F0F" transform="translate(216,278)"/>
<path d="M0 0 C0.33 0.66 0.66 1.32 1 2 C2.65 1.34 4.3 0.68 6 0 C6 2.31 6 4.62 6 7 C3.03 7 0.06 7 -3 7 C-1.125 2.25 -1.125 2.25 0 0 Z " fill="#A3A3A3" transform="translate(336,78)"/>
<path d="M0 0 C-3.96 0.66 -7.92 1.32 -12 2 C-12 1.34 -12 0.68 -12 0 C-14.64 0.33 -17.28 0.66 -20 1 C-17.63496183 -1.36503817 -16.35963958 -1.54921059 -13.125 -2.1875 C-12.26132813 -2.36667969 -11.39765625 -2.54585938 -10.5078125 -2.73046875 C-6.18437801 -3.19513694 -3.91804869 -1.95902435 0 0 Z " fill="#B0B0B0" transform="translate(155,97)"/>
<path d="M0 0 C0.33 0 0.66 0 1 0 C1 1.65 1 3.3 1 5 C1.99 5 2.98 5 4 5 C4 6.32 4 7.64 4 9 C1.87465341 8.85930804 -0.25027529 8.71229079 -2.375 8.5625 C-3.55835938 8.48128906 -4.74171875 8.40007812 -5.9609375 8.31640625 C-9 8 -9 8 -11 7 C-11 5.68 -11 4.36 -11 3 C-9.68 3.33 -8.36 3.66 -7 4 C-7.99 4 -8.98 4 -10 4 C-10 4.66 -10 5.32 -10 6 C-7.03 6 -4.06 6 -1 6 C-0.67 4.02 -0.34 2.04 0 0 Z " fill="#B5B5B5" transform="translate(277,71)"/>
<path d="M0 0 C0.33 1.32 0.66 2.64 1 4 C2.32 4 3.64 4 5 4 C5.33 6.97 5.66 9.94 6 13 C-0.35704698 8.18926174 -0.35704698 8.18926174 -2 5 C-1.1875 2.25 -1.1875 2.25 0 0 Z " fill="#121212" transform="translate(112,65)"/>
<path d="M0 0 C4.3890815 0.51035831 7.33708062 1.52214277 11 4 C7.61899179 7.01875733 7.61899179 7.01875733 4.9375 6.9375 C2.44594305 5.73190793 1.42336035 4.34854458 0 2 C0 1.34 0 0.68 0 0 Z " fill="#CACACA" transform="translate(161,230)"/>
<path d="M0 0 C0.99 0 1.98 0 3 0 C2.34 1.98 1.68 3.96 1 6 C0.34 6 -0.32 6 -1 6 C-1 6.66 -1 7.32 -1 8 C-4.71599191 8.20086443 -5.77208445 8.1519437 -9 6 C-9 5.34 -9 4.68 -9 4 C-6.36 3.67 -3.72 3.34 -1 3 C-0.67 2.01 -0.34 1.02 0 0 Z " fill="#999999" transform="translate(229,276)"/>
<path d="M0 0 C2.31 0 4.62 0 7 0 C7.33 1.65 7.66 3.3 8 5 C6.02 5.33 4.04 5.66 2 6 C0 3 0 3 0 0 Z " fill="#0F0F0F" transform="translate(160,69)"/>
<path d="M0 0 C1.8830622 3.26397448 2.67342446 6.24438133 3 10 C2.34 10.66 1.68 11.32 1 12 C0.67 12.99 0.34 13.98 0 15 C-1.32 12.36 -2.64 9.72 -4 7 C-3.01 6.01 -2.02 5.02 -1 4 C-0.28552357 1.89667109 -0.28552357 1.89667109 0 0 Z " fill="#D4D4D4" transform="translate(197,195)"/>
<path d="M0 0 C0 2.97 0 5.94 0 9 C-1.32 9 -2.64 9 -4 9 C-4.185625 7.824375 -4.185625 7.824375 -4.375 6.625 C-4.79117993 3.85942178 -4.79117993 3.85942178 -7 2 C-4.35261084 0.5393715 -3.10551666 0 0 0 Z " fill="#E0E0E0" transform="translate(287,57)"/>
<path d="M0 0 C2.25245881 2.68841859 3.88213958 4.64641875 5 8 C4.34 8 3.68 8 3 8 C2.67 8.99 2.34 9.98 2 11 C1.01 10.01 0.02 9.02 -1 8 C-0.34 7.01 0.32 6.02 1 5 C-0.32 5.33 -1.64 5.66 -3 6 C-3 3 -3 3 -1.5 1.3125 C-0.7575 0.6628125 -0.7575 0.6628125 0 0 Z " fill="#151515" transform="translate(165,237)"/>
<path d="M0 0 C1.65 0 3.3 0 5 0 C4.01 0.33 3.02 0.66 2 1 C2 1.99 2 2.98 2 4 C2.66 4 3.32 4 4 4 C4 4.66 4 5.32 4 6 C0.535 7.485 0.535 7.485 -3 9 C-3 7.02 -3 5.04 -3 3 C-2.01 3 -1.02 3 0 3 C0 2.01 0 1.02 0 0 Z " fill="#181818" transform="translate(316,64)"/>
<path d="M0 0 C0.66 0.99 1.32 1.98 2 3 C1.04367001 4.29315061 0.08486149 5.58446853 -0.875 6.875 C-1.40867188 7.59429687 -1.94234375 8.31359375 -2.4921875 9.0546875 C-5.1652227 12.5033184 -6.72699184 13.3253145 -11 14 C-10.62488281 13.57589844 -10.24976563 13.15179688 -9.86328125 12.71484375 C-6.30335421 8.63482662 -3.08682003 4.4486524 0 0 Z " fill="#D6D6D6" transform="translate(232,212)"/>
<path d="M0 0 C0.79921875 0.02707031 1.5984375 0.05414063 2.421875 0.08203125 C3.02515625 0.11683594 3.6284375 0.15164062 4.25 0.1875 C4.25 0.5175 4.25 0.8475 4.25 1.1875 C6.89 1.5175 9.53 1.8475 12.25 2.1875 C12.25 2.5175 12.25 2.8475 12.25 3.1875 C5.32 3.1875 -1.61 3.1875 -8.75 3.1875 C-4.25 -0.1875 -4.25 -0.1875 0 0 Z " fill="#C1C1C1" transform="translate(181.75,88.8125)"/>
<path d="M0 0 C2.04333653 3.06500479 2.57911363 4.93471815 3.25 8.5 C3.44078125 9.4590625 3.6315625 10.418125 3.828125 11.40625 C4 14 4 14 2 17 C2 16.01 2 15.02 2 14 C1.34 14 0.68 14 0 14 C0 9.38 0 4.76 0 0 Z " fill="#252525" transform="translate(213,57)"/>
<path d="M0 0 C0.66 0 1.32 0 2 0 C2.33 2.64 2.66 5.28 3 8 C0.69 8 -1.62 8 -4 8 C-4.33 6.35 -4.66 4.7 -5 3 C-4.01 3.33 -3.02 3.66 -2 4 C-1.34 2.68 -0.68 1.36 0 0 Z " fill="#040404" transform="translate(165,62)"/>
<path d="M0 0 C0.33 0.66 0.66 1.32 1 2 C0.34 2.66 -0.32 3.32 -1 4 C-1.99 4 -2.98 4 -4 4 C-4 5.32 -4 6.64 -4 8 C-3.34 8.33 -2.68 8.66 -2 9 C-2.33 10.32 -2.66 11.64 -3 13 C-5.59487555 11.70256222 -6.02269781 10.70637529 -7 8 C-6.68097423 4.65022937 -6.40820361 3.40820361 -4 1 C-1.875 0.375 -1.875 0.375 0 0 Z " fill="#B7B7B7" transform="translate(214,193)"/>
<path d="M0 0 C0 0.99 0 1.98 0 3 C-0.33 3.33 -0.66 3.66 -1 4 C-0.34 4.66 0.32 5.32 1 6 C-0.26831693 6.81642254 -1.53975931 7.62799105 -2.8125 8.4375 C-3.87404297 9.11619141 -3.87404297 9.11619141 -4.95703125 9.80859375 C-7 11 -7 11 -10 12 C-8.52278578 8.54798361 -6.56205999 6.35038064 -3.875 3.75 C-3.15054687 3.04359375 -2.42609375 2.3371875 -1.6796875 1.609375 C-1.12539063 1.07828125 -0.57109375 0.5471875 0 0 Z " fill="#B6B6B6" transform="translate(286,160)"/>
<path d="M0 0 C2.64 0 5.28 0 8 0 C7.67 0.66 7.34 1.32 7 2 C4.03 1.505 4.03 1.505 1 1 C1 2.32 1 3.64 1 5 C1.66 5 2.32 5 3 5 C3 5.99 3 6.98 3 8 C-0.3 8 -3.6 8 -7 8 C-7 6.68 -7 5.36 -7 4 C-6.01 4.495 -6.01 4.495 -5 5 C-5.33 5.66 -5.66 6.32 -6 7 C-4.35 7 -2.7 7 -1 7 C-0.67 4.69 -0.34 2.38 0 0 Z " fill="#CDCDCD" transform="translate(246,67)"/>
<path d="M0 0 C-1.05098766 2.86632997 -1.66862954 3.83006643 -4.4375 5.25 C-7 6 -7 6 -10 6 C-10 4.68 -10 3.36 -10 2 C-8.71211992 1.46987262 -7.41953322 0.9511671 -6.125 0.4375 C-5.40570313 0.14746094 -4.68640625 -0.14257812 -3.9453125 -0.44140625 C-2 -1 -2 -1 0 0 Z " fill="#B9B9B9" transform="translate(99,110)"/>
<path d="M0 0 C0.33 1.98 0.66 3.96 1 6 C0.34 6 -0.32 6 -1 6 C-1.33 7.32 -1.66 8.64 -2 10 C-2.33 8.68 -2.66 7.36 -3 6 C-3.66 6 -4.32 6 -5 6 C-4.625 3.5625 -4.625 3.5625 -4 1 C-2 0 -2 0 0 0 Z " fill="#292929" transform="translate(315,78)"/>
<path d="M0 0 C5.26053037 -0.31563182 8.44573816 0.33409063 13 3 C13 3.66 13 4.32 13 5 C11.3934324 4.74379316 9.7897517 4.46944129 8.1875 4.1875 C7.29417969 4.03667969 6.40085937 3.88585937 5.48046875 3.73046875 C2.81678744 2.94604607 1.74309678 2.11372201 0 0 Z " fill="#DADADA" transform="translate(320,105)"/>
<path d="M0 0 C2.33294775 -0.04241723 4.66702567 -0.04092937 7 0 C8 1 8 1 8.0625 4.0625 C8.041875 5.031875 8.02125 6.00125 8 7 C5.36 7 2.72 7 0 7 C0.33 6.01 0.66 5.02 1 4 C2.32 4.66 3.64 5.32 5 6 C5 4.35 5 2.7 5 1 C3.35 1 1.7 1 0 1 C0 0.67 0 0.34 0 0 Z " fill="#313131" transform="translate(219,87)"/>
<path d="M0 0 C8.57142857 1 8.57142857 1 12 2 C11.67 3.32 11.34 4.64 11 6 C11 5.01 11 4.02 11 3 C6.85906302 2.79029441 6.85906302 2.79029441 3 4 C2.67 4.99 2.34 5.98 2 7 C2 6.01 2 5.02 2 4 C1.34 4 0.68 4 0 4 C0 2.68 0 1.36 0 0 Z " fill="#C1C1C1" transform="translate(304,61)"/>
<path d="M0 0 C1.32 0 2.64 0 4 0 C5.25 6.625 5.25 6.625 3 10 C3 9.01 3 8.02 3 7 C2.01 7 1.02 7 0 7 C0 4.69 0 2.38 0 0 Z " fill="#0F0F0F" transform="translate(189,65)"/>
<path d="M0 0 C1.93719378 -0.05406122 3.87481921 -0.09282025 5.8125 -0.125 C6.89144531 -0.14820312 7.97039062 -0.17140625 9.08203125 -0.1953125 C12 0 12 0 15 2 C15 2.99 15 3.98 15 5 C13.06077578 4.54901762 11.12366406 4.08894441 9.1875 3.625 C8.10855469 3.36976562 7.02960938 3.11453125 5.91796875 2.8515625 C3 2 3 2 0 0 Z " fill="#B0B0B0" transform="translate(308,103)"/>
<path d="M0 0 C2.49505962 2.49505962 2.35948376 3.67328888 2.625 7.125 C2.69976562 8.03507812 2.77453125 8.94515625 2.8515625 9.8828125 C2.92503906 10.93082031 2.92503906 10.93082031 3 12 C2.01 12.33 1.02 12.66 0 13 C0 8.71 0 4.42 0 0 Z " fill="#101010" transform="translate(223,297)"/>
<path d="M0 0 C0.66 0.33 1.32 0.66 2 1 C0.5682479 6.01113235 -1.98445693 7.94469549 -6 11 C-6.66 10.67 -7.32 10.34 -8 10 C-5.36 6.7 -2.72 3.4 0 0 Z " fill="#1E1E1E" transform="translate(266,245)"/>
<path d="M0 0 C2.31309705 0.11341637 4.62550185 0.24103807 6.9375 0.375 C8.86916016 0.47941406 8.86916016 0.47941406 10.83984375 0.5859375 C12.40412109 0.79089844 12.40412109 0.79089844 14 1 C14.33 1.66 14.66 2.32 15 3 C13.06318839 3.08107583 11.1254066 3.13922475 9.1875 3.1875 C8.10855469 3.22230469 7.02960938 3.25710937 5.91796875 3.29296875 C3 3 3 3 1.11328125 1.48828125 C0.56220703 0.75158203 0.56220703 0.75158203 0 0 Z " fill="#E2E2E2" transform="translate(270,93)"/>
<path d="M0 0 C2.31 0 4.62 0 7 0 C7.33 0.66 7.66 1.32 8 2 C6.35 2 4.7 2 3 2 C2.67 3.65 2.34 5.3 2 7 C1.34 7 0.68 7 0 7 C0 4.69 0 2.38 0 0 Z " fill="#282828" transform="translate(136,63)"/>
<path d="M0 0 C0 3 0 3 -2.1875 5.48046875 C-3.115625 6.37378906 -4.04375 7.26710937 -5 8.1875 C-5.928125 9.08855469 -6.85625 9.98960937 -7.8125 10.91796875 C-8.534375 11.60503906 -9.25625 12.29210937 -10 13 C-10.99 12.67 -11.98 12.34 -13 12 C-12.14535156 11.21753906 -11.29070312 10.43507812 -10.41015625 9.62890625 C-9.29425993 8.60678273 -8.17837511 7.58464667 -7.0625 6.5625 C-6.21655273 5.7880957 -6.21655273 5.7880957 -5.35351562 4.99804688 C-2.64001674 2.53775333 -2.64001674 2.53775333 0 0 Z " fill="#C8C8C8" transform="translate(294,227)"/>
<path d="M0 0 C4.83256305 0.41421969 6.82679218 2.46413986 10 6 C9.67 6.66 9.34 7.32 9 8 C8.278125 7.38125 7.55625 6.7625 6.8125 6.125 C4.21618062 4.16333647 2.05328334 3.04684 -1 2 C-0.67 1.34 -0.34 0.68 0 0 Z " fill="#BEBEBE" transform="translate(151,164)"/>
<path d="M0 0 C2.375 0.25 2.375 0.25 5 1 C6.3125 3.0625 6.3125 3.0625 7 5 C5.1875 5.6875 5.1875 5.6875 3 6 C1.25 4.75 1.25 4.75 0 3 C0 2.01 0 1.02 0 0 Z " fill="#EFEFEF" transform="translate(257,270)"/>
<path d="M0 0 C0.33 0 0.66 0 1 0 C1.0825 0.78375 1.165 1.5675 1.25 2.375 C1.72806339 5.14749104 1.72806339 5.14749104 4.0625 6.3125 C4.701875 6.539375 5.34125 6.76625 6 7 C3.36 7 0.72 7 -2 7 C-2.33 5.35 -2.66 3.7 -3 2 C-2.01 2 -1.02 2 0 2 C0 1.34 0 0.68 0 0 Z " fill="#B2B2B2" transform="translate(254,70)"/>
<path d="M0 0 C1.32 0 2.64 0 4 0 C4.33 1.65 4.66 3.3 5 5 C3.35 5.33 1.7 5.66 0 6 C0 4.02 0 2.04 0 0 Z " fill="#0C0C0C" transform="translate(188,55)"/>
<path d="M0 0 C0 0.66 0 1.32 0 2 C-0.66 2 -1.32 2 -2 2 C-2 2.66 -2 3.32 -2 4 C-1.01 4.33 -0.02 4.66 1 5 C-2.67410785 6.17571451 -6.16929183 6.07366746 -10 6 C-9.360625 5.731875 -8.72125 5.46375 -8.0625 5.1875 C-5.66868314 4.11332248 -5.66868314 4.11332248 -5 1 C-2 0 -2 0 0 0 Z " fill="#B1B1B1" transform="translate(168,74)"/>
<path d="M0 0 C1.2065625 0.0309375 1.2065625 0.0309375 2.4375 0.0625 C2.7675 0.7225 3.0975 1.3825 3.4375 2.0625 C2.1175 2.0625 0.7975 2.0625 -0.5625 2.0625 C-0.8925 3.7125 -1.2225 5.3625 -1.5625 7.0625 C-2.2225 7.0625 -2.8825 7.0625 -3.5625 7.0625 C-3.60504356 5.06295254 -3.60330783 3.06208364 -3.5625 1.0625 C-2.5625 0.0625 -2.5625 0.0625 0 0 Z " fill="#F9F9F9" transform="translate(268.5625,54.9375)"/>
<path d="M0 0 C0.66 0.33 1.32 0.66 2 1 C1.34 2.98 0.68 4.96 0 7 C-2.96175123 6.38722388 -4.38058783 5.74627478 -7 4 C-1.7265625 0.77734375 -1.7265625 0.77734375 0 0 Z " fill="#D0D0D0" transform="translate(172,272)"/>
<path d="M0 0 C2.97 0.495 2.97 0.495 6 1 C6 1.99 6 2.98 6 4 C3.36 4 0.72 4 -2 4 C-1.34 2.68 -0.68 1.36 0 0 Z " fill="#202020" transform="translate(210,90)"/>
<path d="M0 0 C2.97 0.495 2.97 0.495 6 1 C5.67 2.32 5.34 3.64 5 5 C2.03 4.505 2.03 4.505 -1 4 C-0.67 2.68 -0.34 1.36 0 0 Z " fill="#1A1A1A" transform="translate(336,87)"/>
<path d="M0 0 C2.12508244 3.18762365 2.5020163 5.26512223 3 9 C-0.63 8.01 -4.26 7.02 -8 6 C-3.70600835 4.92650209 -2.80504787 5.20317184 1 7 C0.67 4.69 0.34 2.38 0 0 Z " fill="#9E9E9E" transform="translate(119,222)"/>
<path d="M0 0 C0.66 1.32 1.32 2.64 2 4 C1.34 4 0.68 4 0 4 C0 5.32 0 6.64 0 8 C-1.32 8 -2.64 8 -4 8 C-4 4 -4 4 -2 1.75 C-1.01 0.88375 -1.01 0.88375 0 0 Z " fill="#3F3F3F" transform="translate(214,203)"/>
<path d="M0 0 C2.0625 0.4375 2.0625 0.4375 4 1 C3.38722388 3.96175123 2.74627478 5.38058783 1 8 C0.34 7.67 -0.32 7.34 -1 7 C-1.04254356 5.00045254 -1.04080783 2.99958364 -1 1 C-0.67 0.67 -0.34 0.34 0 0 Z " fill="#636363" transform="translate(217,193)"/>
<path d="M0 0 C0.33 0 0.66 0 1 0 C1.33 4.62 1.66 9.24 2 14 C1.34 14 0.68 14 0 14 C-1.13016601 8.97703996 -0.77916092 5.02125926 0 0 Z " fill="#999999" transform="translate(299,161)"/>
<path d="M0 0 C0.66 0.33 1.32 0.66 2 1 C1.67 2.98 1.34 4.96 1 7 C-0.65 7 -2.3 7 -4 7 C-3.67 6.01 -3.34 5.02 -3 4 C-2.34 3.67 -1.68 3.34 -1 3 C-0.67 2.01 -0.34 1.02 0 0 Z " fill="#F9F9F9" transform="translate(244,67)"/>
<path d="M0 0 C0.99 0 1.98 0 3 0 C4.75 1.8125 4.75 1.8125 6 4 C5.67 4.99 5.34 5.98 5 7 C2.5 5.1875 2.5 5.1875 0 3 C0 2.01 0 1.02 0 0 Z " fill="#111111" transform="translate(205,276)"/>
<path d="M0 0 C1.32 0 2.64 0 4 0 C6.1519437 3.22791555 6.20086443 4.28400809 6 8 C5.67 7.01 5.34 6.02 5 5 C4.34 4.67 3.68 4.34 3 4 C1 3 1 3 0 0 Z " fill="#DBDBDB" transform="translate(223,203)"/>
<path d="M0 0 C1.32 0 2.64 0 4 0 C3.49396008 2.16874252 3.00016187 3.99967627 2 6 C1.34 6 0.68 6 0 6 C-0.33 6.66 -0.66 7.32 -1 8 C-0.67 5.36 -0.34 2.72 0 0 Z " fill="#484848" transform="translate(223,197)"/>
<path d="M0 0 C0.66 0.33 1.32 0.66 2 1 C2 2.98 2 4.96 2 7 C1.01 7.33 0.02 7.66 -1 8 C-1.185625 7.071875 -1.185625 7.071875 -1.375 6.125 C-1.87197356 3.80879168 -1.87197356 3.80879168 -4 2 C-2.68 2 -1.36 2 0 2 C0 1.34 0 0.68 0 0 Z " fill="#F2F2F2" transform="translate(215,193)"/>
<path d="M0 0 C1.32 0 2.64 0 4 0 C4 1.32 4 2.64 4 4 C4.66 4.33 5.32 4.66 6 5 C5.01 5.33 4.02 5.66 3 6 C2.01 5.34 1.02 4.68 0 4 C0 2.68 0 1.36 0 0 Z " fill="#454545" transform="translate(210,197)"/>
<path d="M0 0 C0 2 0 4 0 6 C-0.66 6.66 -1.32 7.32 -2 8 C-2.2475 7.360625 -2.495 6.72125 -2.75 6.0625 C-3.81562433 3.81258459 -3.81562433 3.81258459 -6.125 3.25 C-7.053125 3.12625 -7.053125 3.12625 -8 3 C-6.865625 2.690625 -5.73125 2.38125 -4.5625 2.0625 C-1.21224901 1.37075469 -1.21224901 1.37075469 0 0 Z " fill="#1D1D1D" transform="translate(204,72)"/>
<path d="M0 0 C1.32 0.66 2.64 1.32 4 2 C4 3.65 4 5.3 4 7 C2.02 6.34 0.04 5.68 -2 5 C-1.34 4.01 -0.68 3.02 0 2 C0 1.34 0 0.68 0 0 Z " fill="#BFBFBF" transform="translate(263,272)"/>
<path d="M0 0 C0.33 0.66 0.66 1.32 1 2 C0.0625 4.125 0.0625 4.125 -1 6 C-0.34 6.33 0.32 6.66 1 7 C0.67 7.99 0.34 8.98 0 10 C-0.66 10 -1.32 10 -2 10 C-2 8.02 -2 6.04 -2 4 C-2.66 3.67 -3.32 3.34 -4 3 C-2.68 2.01 -1.36 1.02 0 0 Z " fill="#C2C2C2" transform="translate(258,248)"/>
<path d="M0 0 C0 0.33 0 0.66 0 1 C-1.65 1 -3.3 1 -5 1 C-5 1.66 -5 2.32 -5 3 C-7.97 2.67 -10.94 2.34 -14 2 C-14 1.67 -14 1.34 -14 1 C-9.27685687 0.22887459 -4.78478822 -0.09764874 0 0 Z " fill="#AAAAAA" transform="translate(292,95)"/>
<path d="M0 0 C1.32 0 2.64 0 4 0 C3.67 1.32 3.34 2.64 3 4 C3 3.01 3 2.02 3 1 C2.34 1 1.68 1 1 1 C1.185625 1.78375 1.37125 2.5675 1.5625 3.375 C2 6 2 6 1 8 C0.34 8 -0.32 8 -1 8 C-1 7.34 -1 6.68 -1 6 C-1.66 5.67 -2.32 5.34 -3 5 C-2.34 4.67 -1.68 4.34 -1 4 C-0.34786708 1.97536745 -0.34786708 1.97536745 0 0 Z " fill="#B3B3B3" transform="translate(139,65)"/>
<path d="M0 0 C1.32 0 2.64 0 4 0 C4 1.32 4 2.64 4 4 C3.01 4 2.02 4 1 4 C0.67 4.99 0.34 5.98 0 7 C-1.125 2.25 -1.125 2.25 0 0 Z " fill="#D4D4D4" transform="translate(298,60)"/>
<path d="M0 0 C0 3.51716303 -0.82445585 4.37121748 -3 7 C-4.32 6.34 -5.64 5.68 -7 5 C-4.69 3.35 -2.38 1.7 0 0 Z " fill="#D2D2D2" transform="translate(355,346)"/>
<path d="M0 0 C0.99 0.33 1.98 0.66 3 1 C2.67 2.98 2.34 4.96 2 7 C0.62437146 5.71034824 -0.70766393 4.37310707 -2 3 C-2 2.34 -2 1.68 -2 1 C-1.34 0.67 -0.68 0.34 0 0 Z " fill="#1E1E1E" transform="translate(168,279)"/>
<path d="M0 0 C0.99 0.33 1.98 0.66 3 1 C-0.625 5.875 -0.625 5.875 -4 7 C-3.43628586 3.73045798 -2.50037734 2.17424117 0 0 Z " fill="#D4D4D4" transform="translate(201,273)"/>
<path d="M0 0 C2 1.3125 2 1.3125 4 3 C4 3.99 4 4.98 4 6 C2.68 6 1.36 6 0 6 C-0.38218767 4.34385343 -0.71395102 2.67542976 -1 1 C-0.67 0.67 -0.34 0.34 0 0 Z " fill="#474747" transform="translate(223,205)"/>
<path d="M0 0 C1.32 0.66 2.64 1.32 4 2 C3.34 3.32 2.68 4.64 2 6 C2 5.34 2 4.68 2 4 C0.02 4.99 0.02 4.99 -2 6 C-1.34 4.02 -0.68 2.04 0 0 Z " fill="#D9D9D9" transform="translate(236,205)"/>
<path d="M0 0 C0.66 0 1.32 0 2 0 C1.67 1.65 1.34 3.3 1 5 C-0.32 5.33 -1.64 5.66 -3 6 C-1.125 1.125 -1.125 1.125 0 0 Z " fill="#C5C5C5" transform="translate(228,197)"/>
<path d="M0 0 C0.66 0.33 1.32 0.66 2 1 C0.375 3.0625 0.375 3.0625 -2 5 C-5.25 4.75 -5.25 4.75 -8 4 C-5.31143836 2.20762558 -3.0466145 1.01553817 0 0 Z " fill="#B0B0B0" transform="translate(266,393)"/>
<path d="M0 0 C0.99 0.66 1.98 1.32 3 2 C2.625 3.9375 2.625 3.9375 2 6 C1.01 6.495 1.01 6.495 0 7 C-0.66 7.99 -1.32 8.98 -2 10 C-1.54177532 6.53058454 -1.10868317 3.32604951 0 0 Z " fill="#C0C0C0" transform="translate(301,212)"/>
<path d="M0 0 C-0.33 0.66 -0.66 1.32 -1 2 C-3.64860427 2.59355614 -6.29197322 2.74209269 -9 3 C-6.38997624 -0.48003168 -4.1689578 -0.27793052 0 0 Z " fill="#E9E9E9" transform="translate(113,106)"/>
<path d="M0 0 C1.98 0 3.96 0 6 0 C5.34 1.32 4.68 2.64 4 4 C4 3.01 4 2.02 4 1 C3.01 1.495 3.01 1.495 2 2 C1.67 2.99 1.34 3.98 1 5 C0.34 5 -0.32 5 -1 5 C-0.67 3.35 -0.34 1.7 0 0 Z " fill="#535353" transform="translate(209,82)"/>
<path d="M0 0 C1.32 0.33 2.64 0.66 4 1 C4 2.98 4 4.96 4 7 C3.67 6.01 3.34 5.02 3 4 C2.01 4 1.02 4 0 4 C0 2.68 0 1.36 0 0 Z " fill="#D2D2D2" transform="translate(98,69)"/>
<path d="M0 0 C0.33 0.66 0.66 1.32 1 2 C-0.175625 2.680625 -0.175625 2.680625 -1.375 3.375 C-4.03698031 4.88428742 -4.03698031 4.88428742 -6 7 C-5.8125 4.625 -5.8125 4.625 -5 2 C-2.4375 0.6875 -2.4375 0.6875 0 0 Z " fill="#BFBFBF" transform="translate(214,193)"/>
<path d="M0 0 C0.99 0.495 0.99 0.495 2 1 C2 1.66 2 2.32 2 3 C2.66 3.33 3.32 3.66 4 4 C3.67 4.99 3.34 5.98 3 7 C2.01 6.67 1.02 6.34 0 6 C0 4.02 0 2.04 0 0 Z " fill="#0F0F0F" transform="translate(143,65)"/>
<path d="M0 0 C1.65 0 3.3 0 5 0 C5 1.33333333 5 2.66666667 5 4 C3.35 4 1.7 4 0 4 C0 2.68 0 1.36 0 0 Z " fill="#C4C4C4" transform="translate(125,62)"/>
<path d="M0 0 C1.4606285 2.64738916 2 3.89448334 2 7 C0.68 7 -0.64 7 -2 7 C-1.42415568 4.61435923 -0.77772405 2.33317216 0 0 Z " fill="#474747" transform="translate(251,58)"/>
</svg>
